<svg width="14" height="18" viewBox="0 0 14 18" fill="none" xmlns="http://www.w3.org/2000/svg">
<path fill-rule="evenodd" clip-rule="evenodd" d="M7 0C7.2761 0 7.5 0.22386 7.5 0.5V17.125C7.5 17.4011 7.2761 17.625 7 17.625C6.7239 17.625 6.5 17.4011 6.5 17.125V0.5C6.5 0.22386 6.7239 0 7 0Z" fill="#AFAFBF"/>
<path fill-rule="evenodd" clip-rule="evenodd" d="M9.375 5.43753H4.625C4.0727 5.43753 3.625 5.88523 3.625 6.43753V6.81253C3.625 7.36483 4.0727 7.81253 4.625 7.81253H9.375C9.9273 7.81253 10.375 7.36483 10.375 6.81253V6.43753C10.375 5.88523 9.9273 5.43753 9.375 5.43753ZM4.625 4.43753C3.5204 4.43753 2.625 5.33293 2.625 6.43753V6.81253C2.625 7.91713 3.5204 8.81253 4.625 8.81253H9.375C10.4796 8.81253 11.375 7.91713 11.375 6.81253V6.43753C11.375 5.33293 10.4796 4.43753 9.375 4.43753H4.625Z" fill="#AFAFBF"/>
<path fill-rule="evenodd" clip-rule="evenodd" d="M12 11.5625H2C1.44772 11.5625 1 12.0102 1 12.5625V12.9375C1 13.4898 1.44772 13.9375 2 13.9375H12C12.5523 13.9375 13 13.4898 13 12.9375V12.5625C13 12.0102 12.5523 11.5625 12 11.5625ZM2 10.5625C0.89543 10.5625 0 11.4579 0 12.5625V12.9375C0 14.0421 0.89543 14.9375 2 14.9375H12C13.1046 14.9375 14 14.0421 14 12.9375V12.5625C14 11.4579 13.1046 10.5625 12 10.5625H2Z" fill="#AFAFBF"/>
</svg>
