<svg width="19" height="19" viewBox="0 0 19 19" fill="none" xmlns="http://www.w3.org/2000/svg">
<path d="M17.4714 0.578561C17.5411 0.648217 17.55 0.700465 17.55 0.725008C17.55 0.74955 17.5411 0.801798 17.4714 0.871454L0.871447 17.4715C0.801791 17.5411 0.749542 17.55 0.725 17.55C0.700458 17.55 0.648209 17.5411 0.578553 17.4715C0.508898 17.4018 0.5 17.3495 0.5 17.325C0.5 17.3005 0.508898 17.2482 0.578553 17.1786L17.1786 0.578561C17.2482 0.508905 17.3005 0.500008 17.325 0.500008C17.3495 0.500008 17.4018 0.508905 17.4714 0.578561Z" fill="#595959" stroke="#595959"/>
<path d="M11.6787 0.578561L11.7137 0.543552L11.7372 0.508273C11.7433 0.505134 11.7583 0.500008 11.7876 0.500008C11.8471 0.500008 11.9185 0.52555 11.9715 0.578561C12.0412 0.648217 12.0501 0.700465 12.0501 0.725008C12.0501 0.74955 12.0412 0.801798 11.9715 0.871454L0.971544 11.8715C0.901888 11.9411 0.84964 11.95 0.825098 11.95C0.800555 11.95 0.748307 11.9411 0.678651 11.8715C0.608995 11.8018 0.600098 11.7495 0.600098 11.725C0.600098 11.7005 0.608995 11.6482 0.678651 11.5786L11.6787 0.578561ZM11.7337 0.510647C11.7336 0.510563 11.7342 0.509943 11.7358 0.509041C11.7345 0.510281 11.7337 0.510732 11.7337 0.510647Z" fill="#595959" stroke="#595959"/>
<path d="M6.31292 0.508273L6.33644 0.543552L6.37145 0.578561C6.4411 0.648217 6.45 0.700465 6.45 0.725008C6.45 0.74955 6.4411 0.801798 6.37145 0.871454L0.871447 6.37145C0.801791 6.44111 0.749542 6.45001 0.725 6.45001C0.700458 6.45001 0.648209 6.44111 0.578553 6.37145C0.508898 6.3018 0.5 6.24955 0.5 6.22501C0.5 6.20047 0.508898 6.14822 0.578553 6.07856L6.07855 0.578561C6.13156 0.52555 6.20298 0.500008 6.2625 0.500008C6.29182 0.500008 6.30677 0.505134 6.31292 0.508273ZM6.31433 0.509042C6.31586 0.509944 6.31649 0.510563 6.31643 0.510647C6.31636 0.510732 6.3156 0.510281 6.31433 0.509042Z" fill="#595959" stroke="#595959"/>
<path d="M17.4715 11.6786C17.5412 11.7482 17.5501 11.8005 17.5501 11.825C17.5501 11.8496 17.5412 11.9018 17.4715 11.9715L11.9715 17.4715C11.9019 17.5411 11.8496 17.55 11.8251 17.55C11.8006 17.55 11.7483 17.5411 11.6787 17.4715C11.609 17.4018 11.6001 17.3496 11.6001 17.325C11.6001 17.3005 11.609 17.2482 11.6787 17.1786L17.1786 11.6786C17.2483 11.6089 17.3006 11.6 17.3251 11.6C17.3496 11.6 17.4019 11.6089 17.4715 11.6786Z" fill="#595959" stroke="#595959"/>
<path d="M1.27145 0.578561C1.3411 0.648217 1.35 0.700465 1.35 0.725008C1.35 0.74955 1.3411 0.801798 1.27145 0.871454L0.871447 1.27145C0.801791 1.34111 0.749542 1.35001 0.725 1.35001C0.700458 1.35001 0.648209 1.34111 0.578553 1.27145C0.508898 1.2018 0.5 1.14955 0.5 1.12501C0.5 1.10047 0.508898 1.04822 0.578553 0.978561L0.978553 0.578561C1.04821 0.508905 1.10046 0.500008 1.125 0.500008C1.14954 0.500008 1.20179 0.508905 1.27145 0.578561Z" fill="#595959" stroke="#595959"/>
<path d="M17.0713 16.3785C17.1409 16.4482 17.1498 16.5005 17.1498 16.525C17.1498 16.5495 17.1409 16.6018 17.0713 16.6714L16.6713 17.0714C16.6016 17.1411 16.5493 17.15 16.5248 17.15C16.5003 17.15 16.448 17.1411 16.3784 17.0714C16.3087 17.0018 16.2998 16.9495 16.2998 16.925C16.2998 16.9005 16.3087 16.8482 16.3784 16.7785L16.7784 16.3785C16.848 16.3089 16.9003 16.3 16.9248 16.3C16.9493 16.3 17.0016 16.3089 17.0713 16.3785Z" fill="#595959" stroke="#595959"/>
<path d="M17.4715 6.07856C17.5412 6.14822 17.5501 6.20047 17.5501 6.22501C17.5501 6.24955 17.5412 6.3018 17.4715 6.37145L6.47154 17.3715C6.40189 17.4411 6.34964 17.45 6.3251 17.45C6.30056 17.45 6.24831 17.4411 6.17865 17.3715C6.109 17.3018 6.1001 17.2496 6.1001 17.225C6.1001 17.2005 6.109 17.1482 6.17865 17.0786L17.1787 6.07856C17.2483 6.00891 17.3006 6.00001 17.3251 6.00001C17.3496 6.00001 17.4019 6.00891 17.4715 6.07856Z" fill="#595959" stroke="#595959"/>
</svg>
