<svg width="18" height="16" viewBox="0 0 18 16" fill="none" xmlns="http://www.w3.org/2000/svg">
<path fill-rule="evenodd" clip-rule="evenodd" d="M0.1875 15.5C0.1875 15.7761 0.41136 16 0.6875 16L17.3125 16C17.5886 16 17.8125 15.7761 17.8125 15.5C17.8125 15.2239 17.5886 15 17.3125 15L0.6875 15C0.41136 15 0.1875 15.2239 0.1875 15.5Z" fill="#AFAFBF"/>
<path fill-rule="evenodd" clip-rule="evenodd" d="M5.625 11.75L5.625 7C5.625 6.4477 6.0727 6 6.625 6L7 6C7.5523 6 8 6.4477 8 7L8 11.75C8 12.3023 7.5523 12.75 7 12.75L6.625 12.75C6.0727 12.75 5.625 12.3023 5.625 11.75ZM4.625 7C4.625 5.8954 5.5204 5 6.625 5L7 5C8.1046 5 9 5.8954 9 7L9 11.75C9 12.8546 8.1046 13.75 7 13.75L6.625 13.75C5.5204 13.75 4.625 12.8546 4.625 11.75L4.625 7Z" fill="#AFAFBF"/>
<path fill-rule="evenodd" clip-rule="evenodd" d="M11.75 12L11.75 2C11.75 1.44772 12.1977 1 12.75 1L13.125 1C13.6773 1 14.125 1.44772 14.125 2L14.125 12C14.125 12.5523 13.6773 13 13.125 13L12.75 13C12.1977 13 11.75 12.5523 11.75 12ZM10.75 2C10.75 0.89543 11.6454 3.91392e-08 12.75 8.74228e-08L13.125 1.03815e-07C14.2296 1.52098e-07 15.125 0.89543 15.125 2L15.125 12C15.125 13.1046 14.2296 14 13.125 14L12.75 14C11.6454 14 10.75 13.1046 10.75 12L10.75 2Z" fill="#AFAFBF"/>
</svg>
