<svg width="19" height="18" viewBox="0 0 19 18" fill="none" xmlns="http://www.w3.org/2000/svg">
<path fill-rule="evenodd" clip-rule="evenodd" d="M9.05029 16.6C13.2503 16.6 16.6503 13.2 16.6503 9.00001C16.6503 4.80001 13.2503 1.40001 9.05029 1.40001C4.85029 1.40001 1.45029 4.80001 1.45029 9.00001C1.45029 13.2 4.85029 16.6 9.05029 16.6ZM9.05029 18C14.0503 18 18.0503 14 18.0503 9.00001C18.0503 4.00001 14.0503 7.62939e-06 9.05029 7.62939e-06C4.05029 7.62939e-06 0.050293 4.00001 0.050293 9.00001C0.050293 14 4.05029 18 9.05029 18Z" fill="#595959"/>
<path fill-rule="evenodd" clip-rule="evenodd" d="M9.05029 12C10.7503 12 12.0503 10.7 12.0503 9.00001C12.0503 7.30001 10.7503 6.00001 9.05029 6.00001C7.35029 6.00001 6.05029 7.30001 6.05029 9.00001C6.05029 10.7 7.35029 12 9.05029 12Z" fill="#595959"/>
</svg>
