<svg width="14" height="14" viewBox="0 0 14 14" fill="none" xmlns="http://www.w3.org/2000/svg">
<path fill-rule="evenodd" clip-rule="evenodd" d="M8.7405 4.20008H1.96757C1.42424 4.20008 0.98378 4.60748 0.98378 5.11008V12.1801C0.98378 12.6827 1.42424 13.0902 1.96757 13.0902H8.7405C9.2839 13.0902 9.7243 12.6827 9.7243 12.1801V5.11008C9.7243 4.60748 9.2839 4.20008 8.7405 4.20008ZM1.96757 3.28998C0.88091 3.28998 0 4.10488 0 5.11008V12.1801C0 13.1853 0.88091 14.0002 1.96757 14.0002H8.7405C9.8272 14.0002 10.7081 13.1853 10.7081 12.1801V5.11008C10.7081 4.10488 9.8272 3.28998 8.7405 3.28998H1.96757Z" fill="#AFAFBF"/>
<path d="M12.0325 0.91001H5.25959C4.71619 0.91001 4.27579 1.31744 4.27579 1.82002H3.29199C3.29199 0.81485 4.17289 0 5.25959 0H12.0325C13.1192 0 14.0001 0.81485 14.0001 1.82002V8.8901C14.0001 9.8953 13.1192 10.7101 12.0325 10.7101V9.8001C12.5759 9.8001 13.0163 9.3927 13.0163 8.8901V1.82002C13.0163 1.31744 12.5759 0.91001 12.0325 0.91001Z" fill="#AFAFBF"/>
</svg>
