<svg width="17" height="17" viewBox="0 0 17 17" fill="none" xmlns="http://www.w3.org/2000/svg">
<path d="M15.7239 10.5256L14.8462 11.3093L13.0578 10.6221L12.8145 9.6179L11.8794 5.37541L14.9161 4.05248L15.293 4.53911C15.8129 5.60544 16.1045 6.80374 16.1045 8.07025C16.1045 8.92631 15.9706 9.75114 15.7239 10.5256Z" fill="#FE7D43"/>
<path d="M12.5973 5.89041L11.5315 5.37563L8.7915 3.44566L10.0128 0.721096L10.8845 0.505066V0.504726C12.8329 1.22926 14.4006 2.70788 15.3038 4.56164L12.5973 5.89041Z" fill="#EE6161"/>
<path d="M9.84101 3.36778L9.25971 3.77527L5.78541 4.30291L4.11621 1.62123L4.88462 0.653506V0.653166C5.86191 0.232796 6.93887 0 8.07023 0C9.06017 0 10.0082 0.178076 10.8847 0.504659V0.505L9.84101 3.36778Z" fill="#C2A1D5"/>
<path d="M5.94592 4.37134L4.01491 7.4048L0.645508 6.36237V4.9027C1.45874 2.99855 2.98324 1.47065 4.885 0.653007V0.653347L6.10604 3.44544L5.94592 4.37134Z" fill="#8AC9FE"/>
<path d="M1.42669 11.9174L0.511789 10.9035H0.511449C0.180796 10.022 0 9.06741 0 8.07067C0 6.94611 0.230065 5.87564 0.645346 4.90302H0.645686L3.45645 6.08017L3.82397 6.92433L4.04465 11.0767L1.42669 11.9174Z" fill="#75CDD5"/>
<path d="M6.18238 15.3373H4.55674C2.70059 14.4381 1.241 12.8491 0.511719 10.9028H0.512059L3.35823 9.81468L5.21911 10.7567L7.68009 12.9705L6.18238 15.3373Z" fill="#6CF5C2"/>
<path d="M12.8509 9.61822L12.7019 10.2811L10.8647 9.81532L10.7657 8.96744C10.8598 8.68566 10.9105 8.38391 10.9105 8.07057C10.9105 7.63696 10.8133 7.22641 10.6396 6.8591L10.6794 6.1826L11.8798 5.54371L12.5977 5.89052C12.9158 6.5498 13.0943 7.28931 13.0943 8.07057C13.0943 8.61054 13.0086 9.13053 12.8509 9.61822Z" fill="#FD6930"/>
<path d="M10.6398 6.8591C10.3294 6.20215 9.77488 5.68354 9.09318 5.42057L8.83105 4.92756L9.37729 3.52888L9.84139 3.36792C11.0522 3.82394 12.0401 4.73376 12.5979 5.89052L10.6398 6.8591Z" fill="#E94444"/>
<path d="M9.09323 5.42004C8.77617 5.29732 8.43118 5.23006 8.07067 5.23006C7.68455 5.23006 7.31692 5.30688 6.98149 5.44692L6.40837 5.38476L5.72656 3.995L6.10609 3.44524C6.7096 3.18833 7.37366 3.04627 8.07067 3.04627C8.69394 3.04627 9.29064 3.15978 9.84155 3.36741L9.09323 5.42004Z" fill="#A274BF"/>
<path d="M5.471 6.92391L5.02251 7.24819L3.55922 6.74106L3.45605 6.07975C3.96691 4.89676 4.91913 3.94964 6.10542 3.44536L6.98082 5.44703C6.30761 5.72636 5.76488 6.25815 5.471 6.92391Z" fill="#26A6FE"/>
<path d="M11.9391 15.1544C10.7904 15.7831 9.47185 16.141 8.07008 16.141C6.81026 16.141 5.61813 15.8524 4.55615 15.3379L5.86484 12.5853L7.16504 12.0022L11.256 11.3095L12.4463 13.8355L11.9391 15.1544Z" fill="#FEE97D"/>
<path d="M16.9879 11.1495C17.0284 11.033 16.9638 10.9062 16.8461 10.8694L15.7452 10.5258L13.6596 9.87503C13.1932 11.3242 12.1813 12.5282 10.8647 13.2446L11.9244 15.1544L12.4851 16.1651C12.5441 16.2722 12.6801 16.3099 12.7859 16.2484C14.7351 15.1184 16.243 13.3115 16.9879 11.1495Z" fill="#FEC165"/>
<path d="M5.23118 8.07025C5.23118 8.40898 5.29026 8.7339 5.39937 9.03501L5.3743 10.2189H4.15645L3.35861 9.81489C3.15747 9.27153 3.04736 8.68364 3.04736 8.07025C3.04736 7.36305 3.1935 6.69016 3.45721 6.07975L5.47205 6.92391C5.31714 7.27433 5.23118 7.66204 5.23118 8.07025Z" fill="#2ABCC8"/>
<path d="M6.88567 12.2557L5.86619 12.5851C4.71316 12.0216 3.80822 11.029 3.35889 9.81511L5.39965 9.03512C5.64838 9.72362 6.15541 10.2885 6.80418 10.6123V10.6126L7.27168 11.1391L6.88567 12.2557Z" fill="#00F2A6"/>
<path d="M10.462 12.4898L10.4616 12.4899C9.75068 12.8752 8.93648 13.094 8.07096 13.094C7.27981 13.094 6.53149 12.9111 5.86572 12.585L6.80371 10.6122C7.18493 10.8025 7.61557 10.9102 8.07096 10.9102C8.55217 10.9102 9.00512 10.7906 9.40207 10.5793L10.1168 10.5441L10.8162 11.4765L10.462 12.4898Z" fill="#FEDF30"/>
<path d="M13.6589 9.87503L12.8351 9.61811L10.765 8.96733C10.5336 9.66359 10.028 10.2462 9.38916 10.5857L10.4456 12.4901L10.864 13.2445C12.1805 12.5281 13.1925 11.3241 13.6589 9.87503Z" fill="#FDB441"/>
</svg>
