<svg width="18" height="14" viewBox="0 0 18 14" fill="none" xmlns="http://www.w3.org/2000/svg">
<path d="M13.4879 2.7006C13.764 2.7006 13.9879 2.4755 13.9879 2.1978V0H8.9933H4V2.1978C4 2.4755 4.2239 2.7006 4.5 2.7006C4.7761 2.7006 5 2.4755 5 2.1978V1.00574H8.4933V5H9.4933V3.8616V1.00574H12.9879V2.1978C12.9879 2.4755 13.2118 2.7006 13.4879 2.7006Z" fill="#AFAFBF"/>
<path d="M10.6786 12.4293H9.49331V8.5H8.50001L8.49331 12.4293H7.30811C7.03201 12.4293 6.80811 12.6544 6.80811 12.9322C6.80811 13.2099 7.03201 13.435 7.30811 13.435H10.6786C10.9547 13.435 11.1786 13.2099 11.1786 12.9322C11.1786 12.6544 10.9547 12.4293 10.6786 12.4293Z" fill="#AFAFBF"/>
<path fill-rule="evenodd" clip-rule="evenodd" d="M9 7.6501C8.8254 7.6501 8.1515 7.655 7.9784 7.6648L7.9051 6.3669C8.1017 6.3558 8.8001 6.3501 9 6.3501V7.6501ZM6.9348 7.7786C6.5826 7.8348 6.2361 7.9073 5.8967 7.9921L5.5816 6.7309C5.9536 6.638 6.3371 6.5576 6.73 6.4949L6.9348 7.7786ZM4.8695 8.2897C4.5188 8.4045 4.1796 8.5285 3.85387 8.6562L3.37962 7.4458C3.72433 7.3107 4.087 7.178 4.4649 7.0543L4.8695 8.2897ZM2.03002 9.4427C1.9645 9.4725 1.90001 9.5018 1.83649 9.5306L1.29975 8.3466C1.36103 8.3188 1.42399 8.2902 1.48852 8.2608C1.74534 8.1441 2.027 8.0161 2.32594 7.885L2.84801 9.0755C2.55785 9.2028 2.28615 9.3263 2.03002 9.4427ZM0.75836 9.9866C0.52596 10.0696 0.25475 10.1499 0 10.1499V8.8499C0 8.8499 0.0279899 8.8486 0.0869799 8.8346C0.14654 8.8204 0.2236 8.7972 0.32117 8.7623L0.75836 9.9866Z" fill="#AFAFBF"/>
<path fill-rule="evenodd" clip-rule="evenodd" d="M9 7.6501C9.1746 7.6501 9.3485 7.6552 9.5216 7.665L9.5949 6.3671C9.3983 6.3559 9.1999 6.3501 9 6.3501V7.6501ZM10.5652 7.7788C10.9173 7.835 11.2639 7.9075 11.6033 7.9923L11.9184 6.7311C11.5464 6.6381 11.1629 6.5577 10.77 6.4951L10.5652 7.7788ZM12.6305 8.2899C12.9812 8.4047 13.3204 8.5287 13.6461 8.6564L14.1204 7.4459C13.7757 7.3109 13.413 7.1782 13.0351 7.0544L12.6305 8.2899ZM15.47 9.4429C15.5355 9.4727 15.6 9.502 15.6635 9.5308L16.2002 8.3467C16.139 8.319 16.076 8.2903 16.0115 8.261C15.7546 8.1443 15.473 8.0162 15.174 7.8852L14.652 9.0757C14.9421 9.203 15.2138 9.3265 15.47 9.4429ZM16.7416 9.9868C16.974 10.0698 17.2452 10.1501 17.5 10.1501V8.8501C17.5 8.8501 17.5 8.8501 17.4999 8.8501C17.498 8.85 17.472 8.8488 17.413 8.8348C17.3534 8.8206 17.2764 8.7973 17.1788 8.7625L16.7416 9.9868Z" fill="#AFAFBF"/>
</svg>
