<svg width="17" height="17" viewBox="0 0 17 17" fill="none" xmlns="http://www.w3.org/2000/svg">
<path d="M16.7953 15.067L4.92446 3.19636C4.58219 2.85413 4.02889 2.85752 3.69014 3.19636L3.19635 3.69014C2.85804 4.02833 2.85249 4.58049 3.19635 4.92446L10.0479 11.7759C10.175 11.9031 10.3951 11.9225 10.5416 11.7759C10.6776 11.6399 10.6778 11.4185 10.5416 11.2822L5.77638 6.5169L6.5169 5.77638L16.3016 15.5607C16.3012 15.5607 15.5607 16.3013 15.5607 16.3013L12.7637 13.5044C12.6176 13.3583 12.3942 13.3803 12.2699 13.5044C12.1338 13.6406 12.1338 13.8623 12.2699 13.9982L15.067 16.7953C15.3443 17.0728 15.7865 17.0637 16.0548 16.7953L16.7953 16.0548C17.0727 15.7774 17.0637 15.3354 16.7953 15.067ZM5.28248 6.02311L3.69014 4.43066C3.62962 4.37025 3.61409 4.25987 3.69014 4.18382L4.18382 3.69014C4.25703 3.61693 4.3681 3.62747 4.43066 3.69014L6.02311 5.28259L5.28248 6.02311ZM11.7548 12.6401C11.7548 12.8329 11.5986 12.9892 11.4058 12.9892C11.213 12.9892 11.0568 12.8329 11.0568 12.6401C11.0568 12.4473 11.2131 12.291 11.4058 12.291C11.5986 12.291 11.7548 12.4473 11.7548 12.6401ZM1.81572 4.64407H0.34918C0.156321 4.64407 0 4.48767 0 4.29489C0 4.10199 0.156321 3.94571 0.34918 3.94571H1.81572C2.00857 3.94571 2.1649 4.10199 2.1649 4.29489C2.1649 4.48767 2.00857 4.64407 1.81572 4.64407ZM3.94571 1.81572V0.349181C3.94571 0.156321 4.10199 0 4.29489 0C4.48767 0 4.64407 0.156321 4.64407 0.349181V1.81572C4.64407 2.00857 4.48767 2.1649 4.29489 2.1649C4.10199 2.1649 3.94571 2.00857 3.94571 1.81572ZM14.5107 3.53782C14.5107 3.34494 14.6671 3.1886 14.8598 3.1886H15.7129C15.9058 3.1886 16.0621 3.34494 16.0621 3.53782C16.0621 3.7306 15.9058 3.887 15.7129 3.887H14.8598C14.6671 3.887 14.5107 3.7306 14.5107 3.53782ZM1.25795 1.75175C1.12159 1.6154 1.12159 1.3943 1.25795 1.25795C1.3943 1.12159 1.6154 1.12159 1.75175 1.25795L2.78868 2.29492C2.92514 2.43128 2.92514 2.65238 2.78868 2.78873C2.65234 2.92508 2.43123 2.92508 2.29489 2.78873L1.25795 1.75175ZM5.80098 2.78876C5.66464 2.65241 5.66464 2.43131 5.80098 2.29496L6.83798 1.25798C6.97432 1.12163 7.19543 1.12163 7.33177 1.25798C7.46811 1.39433 7.46811 1.61543 7.33177 1.75178L6.29477 2.78876C6.15843 2.92512 5.93732 2.92512 5.80098 2.78876ZM2.7888 5.80098C2.92514 5.93732 2.92514 6.15843 2.7888 6.29477L1.75178 7.33177C1.61543 7.46811 1.39433 7.46811 1.25798 7.33177C1.12163 7.19543 1.12163 6.97432 1.25798 6.83798L2.295 5.80098C2.43134 5.66464 2.65234 5.66464 2.7888 5.80098ZM13.587 2.13532L13.8505 1.32397C13.9101 1.14059 14.1071 1.0402 14.2906 1.09977C14.4739 1.15933 14.5744 1.35634 14.5147 1.53976L14.2511 2.3511C14.1916 2.5345 13.9945 2.63488 13.8112 2.57531C13.6277 2.51574 13.5274 2.3187 13.587 2.13532ZM11.4245 2.03102C11.5378 1.87501 11.7562 1.84043 11.9121 1.95378L12.6023 2.45523C12.7584 2.56858 12.793 2.78695 12.6796 2.94297C12.5663 3.09897 12.3479 3.13355 12.1919 3.0202L11.5017 2.51875C11.3457 2.4054 11.3111 2.18703 11.4245 2.03102ZM14.2511 4.72465L14.5149 5.536C14.5745 5.71938 14.4741 5.91646 14.2907 5.97596C14.1072 6.03558 13.9102 5.93528 13.8506 5.75179L13.587 4.94055C13.5274 4.75706 13.6278 4.56009 13.8112 4.50047C13.9945 4.44086 14.1916 4.54127 14.2511 4.72465ZM11.4242 5.0447C11.3109 4.88875 11.3455 4.67036 11.5015 4.55703L12.1916 4.05553C12.3477 3.94219 12.5661 3.97676 12.6794 4.13282C12.7927 4.28877 12.7582 4.50716 12.6021 4.62049L11.9119 5.12199C11.756 5.23533 11.5376 5.20076 11.4242 5.0447ZM4.11423 11.1171L3.17493 10.8121C2.99155 10.7525 2.89114 10.5555 2.95086 10.3721C3.01048 10.1887 3.20757 10.0884 3.39094 10.1481L4.33036 10.4531C4.51373 10.5127 4.61403 10.7097 4.55431 10.8932C4.49469 11.0765 4.29761 11.1768 4.11423 11.1171ZM7.56003 11.8698C7.50041 12.0531 7.30333 12.1534 7.11995 12.0937L6.18064 11.7888C5.99716 11.7291 5.89686 11.5321 5.95658 11.3488C6.0162 11.1653 6.21328 11.065 6.39666 11.1247L7.33597 11.4297C7.51945 11.4893 7.61964 11.6864 7.56003 11.8698ZM6.22824 9.2564L5.92338 10.1958C5.86365 10.3792 5.66668 10.4795 5.4833 10.4198C5.29982 10.3602 5.19952 10.1631 5.25924 9.9797L5.56422 9.04039C5.62384 8.85701 5.82092 8.7566 6.0043 8.81633C6.18767 8.87594 6.28797 9.07303 6.22824 9.2564ZM5.25165 12.2621L4.94667 13.2014C4.88706 13.3849 4.69008 13.4852 4.50659 13.4255C4.32322 13.3659 4.22292 13.1688 4.28265 12.9854L4.58763 12.0461C4.64724 11.8626 4.84421 11.7623 5.0277 11.822C5.21108 11.8817 5.31138 12.0786 5.25165 12.2621Z" fill="#AFAFBF"/>
</svg>
