<svg width="19" height="18" viewBox="0 0 19 18" fill="none" xmlns="http://www.w3.org/2000/svg">
<path fill-rule="evenodd" clip-rule="evenodd" d="M1.65029 1.40001C1.55029 1.40001 1.45029 1.50001 1.45029 1.60001V6.20001C1.45029 6.30001 1.55029 6.40001 1.65029 6.40001H6.25029C6.35029 6.40001 6.45029 6.30001 6.45029 6.20001V1.60001C6.45029 1.50001 6.35029 1.40001 6.25029 1.40001H1.65029ZM0.050293 1.60001C0.050293 0.700008 0.750293 7.62939e-06 1.65029 7.62939e-06H6.25029C7.15029 7.62939e-06 7.85029 0.700008 7.85029 1.60001V6.20001C7.85029 7.10001 7.15029 7.80001 6.25029 7.80001H1.65029C0.750293 7.80001 0.050293 7.10001 0.050293 6.20001V1.60001Z" fill="#595959"/>
<path fill-rule="evenodd" clip-rule="evenodd" d="M1.65029 11.5C1.55029 11.5 1.45029 11.6 1.45029 11.7V16.3C1.45029 16.4 1.55029 16.5 1.65029 16.5H6.25029C6.35029 16.5 6.45029 16.4 6.45029 16.3V11.7C6.45029 11.6 6.35029 11.5 6.25029 11.5H1.65029ZM0.050293 11.8C0.050293 10.9 0.750293 10.2 1.65029 10.2H6.25029C7.15029 10.2 7.85029 10.9 7.85029 11.8V16.4C7.85029 17.3 7.15029 18 6.25029 18H1.65029C0.750293 18 0.050293 17.3 0.050293 16.4V11.8Z" fill="#595959"/>
<path fill-rule="evenodd" clip-rule="evenodd" d="M11.8505 11.5C11.7505 11.5 11.6505 11.6 11.6505 11.7V16.3C11.6505 16.4 11.7505 16.5 11.8505 16.5H16.4505C16.5505 16.5 16.6505 16.4 16.6505 16.3V11.7C16.6505 11.6 16.5505 11.5 16.4505 11.5H11.8505ZM10.2505 11.8C10.2505 10.9 10.9505 10.2 11.8505 10.2H16.4505C17.3505 10.2 18.0505 10.9 18.0505 11.8V16.4C18.0505 17.3 17.3505 18 16.4505 18H11.8505C10.9505 18 10.2505 17.3 10.2505 16.4V11.8Z" fill="#595959"/>
<path fill-rule="evenodd" clip-rule="evenodd" d="M11.8505 1.3C11.7505 1.3 11.6505 1.4 11.6505 1.5V6.1C11.6505 6.2 11.7505 6.3 11.8505 6.3H16.4505C16.5505 6.3 16.6505 6.2 16.6505 6.1V1.5C16.6505 1.4 16.5505 1.3 16.4505 1.3H11.8505ZM10.2505 1.6C10.2505 0.7 10.9505 0 11.8505 0H16.4505C17.3505 0 18.0505 0.7 18.0505 1.6V6.2C18.0505 7.1 17.3505 7.8 16.4505 7.8H11.8505C10.9505 7.8 10.2505 7.1 10.2505 6.2V1.6Z" fill="#595959"/>
</svg>
