<?xml version="1.0" encoding="UTF-8"?>
<svg xmlns="http://www.w3.org/2000/svg" xmlns:xlink="http://www.w3.org/1999/xlink" width="17px" height="23px" viewBox="0 0 17 22" version="1.1">
<g id="surface1">
<path style=" stroke:none;fill-rule:nonzero;fill:#AFAFBF;fill-opacity:1;" d="M 9.917969 5.84375 L 9.917969 0 L 1.0625 0 C 0.472656 0 0 0.460938 0 1.03125 L 0 20.96875 C 0 21.539062 0.472656 22 1.0625 22 L 15.9375 22 C 16.527344 22 17 21.539062 17 20.96875 L 17 6.875 L 10.980469 6.875 C 10.394531 6.875 9.917969 6.410156 9.917969 5.84375 Z M 12.75 15.984375 C 12.75 16.269531 12.511719 16.5 12.21875 16.5 L 4.78125 16.5 C 4.488281 16.5 4.25 16.269531 4.25 15.984375 L 4.25 15.640625 C 4.25 15.355469 4.488281 15.125 4.78125 15.125 L 12.21875 15.125 C 12.511719 15.125 12.75 15.355469 12.75 15.640625 Z M 12.75 13.234375 C 12.75 13.519531 12.511719 13.75 12.21875 13.75 L 4.78125 13.75 C 4.488281 13.75 4.25 13.519531 4.25 13.234375 L 4.25 12.890625 C 4.25 12.605469 4.488281 12.375 4.78125 12.375 L 12.21875 12.375 C 12.511719 12.375 12.75 12.605469 12.75 12.890625 Z M 12.75 10.140625 L 12.75 10.484375 C 12.75 10.769531 12.511719 11 12.21875 11 L 4.78125 11 C 4.488281 11 4.25 10.769531 4.25 10.484375 L 4.25 10.140625 C 4.25 9.855469 4.488281 9.625 4.78125 9.625 L 12.21875 9.625 C 12.511719 9.625 12.75 9.855469 12.75 10.140625 Z M 17 5.238281 L 17 5.5 L 11.332031 5.5 L 11.332031 0 L 11.601562 0 C 11.886719 0 12.15625 0.109375 12.355469 0.300781 L 16.691406 4.511719 C 16.890625 4.703125 17 4.96875 17 5.238281 Z M 17 5.238281 "/>
</g>
</svg>
