<svg width="18" height="18" viewBox="0 0 18 18" fill="none" xmlns="http://www.w3.org/2000/svg">
<path d="M1.6672 8.88366C1.67157 8.6077 1.8991 8.38728 2.17506 8.39165L10.5074 8.52369C10.7834 8.52807 11.0038 8.75559 10.9994 9.03155C10.995 9.30752 10.7675 9.52794 10.4915 9.52357L2.15922 9.39152C1.88325 9.38715 1.66283 9.15963 1.6672 8.88366Z" fill="#AFAFBF"/>
<path d="M11.579 14.5411L11.6477 10.2082C11.652 9.93228 11.8796 9.71186 12.1555 9.71623C12.4315 9.7206 12.6519 9.94812 12.6475 10.2241L12.5868 14.057L16.4197 14.1177C16.6956 14.1221 16.9161 14.3496 16.9117 14.6256C16.9073 14.9015 16.6798 15.122 16.4038 15.1176L12.071 15.0489C11.795 15.0446 11.5746 14.817 11.579 14.5411Z" fill="#AFAFBF"/>
<path d="M11.5791 14.5415C11.5824 14.3336 11.7154 14.1423 11.9233 14.0742C14.1264 13.3531 15.6301 11.3566 15.6658 9.10561C15.7015 6.85447 14.2618 4.8114 12.0826 4.02077C11.8227 3.9267 11.6887 3.64054 11.7833 3.38006C11.8775 3.12085 12.1644 2.98671 12.4242 3.08081C15.0037 4.01711 16.7081 6.44442 16.6657 9.12146C16.6232 11.7985 14.8428 14.1706 12.2349 15.0247C11.9722 15.1105 11.6905 14.9672 11.6039 14.7053C11.5861 14.651 11.5783 14.5955 11.5791 14.5415Z" fill="#AFAFBF"/>
<path d="M1.11448 1.70737C1.12175 1.24808 1.50169 0.880033 1.96095 0.887311L10.9598 1.02992C11.4191 1.0372 11.787 1.4171 11.7798 1.87639C11.7763 2.09561 11.6857 2.30293 11.5239 2.45908C11.5152 2.46761 11.4597 2.51471 11.4502 2.52249L7.16322 6.67778C6.96263 6.87932 6.75258 6.964 6.53192 6.9605C6.32532 6.95723 6.12848 6.87878 5.97605 6.73829L1.37147 2.3248C1.20915 2.17427 1.11076 1.94196 1.11448 1.70737ZM2.06233 1.60166C2.06098 1.60029 2.05895 1.5983 2.05704 1.5962L2.06233 1.60166ZM10.5307 2.02324L2.36631 1.89386L6.54012 5.89444L10.5307 2.02324ZM6.42567 6.00533L6.42555 6.01264L6.42567 6.00533Z" fill="#AFAFBF"/>
<path d="M0.887492 16.0388C0.891209 15.8042 0.996909 15.5751 1.16996 15.4239L5.89862 11.171C6.06295 11.0289 6.26207 10.9567 6.46867 10.96C6.69001 10.9635 6.89795 11.0554 7.05334 11.218C7.06121 11.2261 7.10778 11.2808 7.11496 11.289L11.2695 15.5766C11.8969 16.2032 11.3857 17.0387 10.7064 17.0279L1.70755 16.8853C1.2483 16.878 0.880214 16.4981 0.887492 16.0388ZM1.83686 16.1692L1.83221 16.1738C1.83418 16.1725 1.83545 16.1713 1.83686 16.1692ZM6.44041 12.029L2.1454 15.8921L10.315 16.0216L6.44041 12.029Z" fill="#AFAFBF"/>
</svg>
