<svg width="16" height="16" viewBox="0 0 16 16" fill="none" xmlns="http://www.w3.org/2000/svg">
<path d="M8 15.3334C7.724 15.3334 7.5 15.1094 7.5 14.8334V6.5C7.5 6.224 7.724 6 8 6C8.276 6 8.5 6.224 8.5 6.5V14.8334C8.5 15.1094 8.276 15.3334 8 15.3334Z" fill="#AFAFBF"/>
<path d="M13.4999 5.33337H9.1665C8.8905 5.33337 8.6665 5.10937 8.6665 4.83337C8.6665 4.55737 8.8905 4.33337 9.1665 4.33337H12.9999V0.5C12.9999 0.224 13.2239 0 13.4999 0C13.7759 0 13.9999 0.224 13.9999 0.5V4.83337C13.9999 5.10937 13.7759 5.33337 13.4999 5.33337Z" fill="#AFAFBF"/>
<path d="M13.5001 5.33316C13.2921 5.33316 13.0987 5.20322 13.0274 4.99647C12.2714 2.80505 10.2514 1.33316 8.00011 1.33316C5.74868 1.33316 3.72868 2.80505 2.97268 4.99647C2.88274 5.25785 2.59874 5.39636 2.3368 5.30585C2.07612 5.21579 1.93746 4.9311 2.02742 4.66985C2.92274 2.07585 5.32274 0.33316 8.00011 0.33316C10.6775 0.33316 13.0775 2.07585 13.9728 4.66985C14.0627 4.9311 13.924 5.2151 13.6634 5.30585C13.6095 5.32447 13.5541 5.33316 13.5001 5.33316Z" fill="#AFAFBF"/>
<path d="M0.833372 15.9998C0.374023 15.9998 0 15.6257 0 15.1664V6.16642C0 5.7071 0.374023 5.33316 0.833372 5.33316C1.05262 5.33316 1.26135 5.42047 1.42005 5.57979C1.42871 5.58836 1.47669 5.6431 1.48462 5.65247L5.70731 9.87305C5.912 10.0704 6 10.2791 6 10.4998C6 10.7064 5.92469 10.9045 5.78663 11.0591L1.44665 15.733C1.29871 15.8977 1.06799 15.9998 0.833372 15.9998ZM0.712652 15.0537C0.711303 15.0551 0.709348 15.0572 0.70728 15.0591L0.712652 15.0537ZM1 6.57979V14.7452L4.93394 10.5085L1 6.57979ZM5.04663 10.6212H5.05394H5.04663Z" fill="#AFAFBF"/>
<path d="M15.1666 15.9998C14.932 15.9998 14.7013 15.8977 14.5473 15.7271L10.22 11.0664C10.0753 10.9044 10 10.7064 10 10.4998C10 10.2784 10.0886 10.069 10.2487 9.9111C10.2567 9.9031 10.3106 9.85567 10.3187 9.84836L14.54 5.62641C15.1566 4.98916 16 5.4871 16 6.16641V15.1664C16 15.6257 15.6259 15.9998 15.1666 15.9998ZM15.2819 15.0485L15.2866 15.053C15.2853 15.0511 15.2841 15.0498 15.2819 15.0485ZM11.0694 10.5111L15 14.7444V6.57373L11.0694 10.5111Z" fill="#AFAFBF"/>
</svg>
