<svg width="25" height="19" viewBox="0 0 25 19" fill="none" xmlns="http://www.w3.org/2000/svg">
<path d="M11.9024 4.1254L8.8382 7.18956C8.64303 7.38472 8.32625 7.38472 8.13109 7.18956C7.93593 6.9944 7.93593 6.67761 8.13109 6.48245L10.8417 3.77185L8.13109 1.06125C7.93593 0.866086 7.93593 0.549302 8.13109 0.35414C8.32625 0.158979 8.64303 0.158979 8.83819 0.35414L11.9024 3.4183C12.0975 3.61346 12.0975 3.93024 11.9024 4.1254Z" fill="#AFAFBF"/>
<path d="M11.9027 4.1248C11.7556 4.27187 11.527 4.31672 11.3304 4.22096C9.24623 3.20596 6.7771 3.59354 5.18518 5.18546C3.59318 6.77746 3.2056 9.24659 4.2206 11.3307C4.34182 11.5792 4.23895 11.8779 3.98972 11.9991C3.74172 12.1198 3.44237 12.0165 3.32124 11.7682C2.12009 9.30086 2.58488 6.37154 4.47807 4.47835C6.37126 2.58516 9.30058 2.12037 11.7679 3.32152C12.0162 3.44266 12.1189 3.74158 11.9989 3.99C11.9739 4.04132 11.9408 4.08665 11.9027 4.1248Z" fill="#AFAFBF"/>
<path d="M11.7055 15.0429H13.063V16.1426H11.7055V18.6043H10.4556V16.1426H6V15.3487L10.3816 8H11.7055V15.0429ZM7.41126 15.0429H10.4556V9.84265L10.3077 10.134L7.41126 15.0429Z" fill="#AFAFBF"/>
<path d="M14.0218 13.2876L14.5191 8H19.5325V9.24543H15.5742L15.2785 12.1369C15.7579 11.831 16.3022 11.678 16.9115 11.678C17.8031 11.678 18.511 11.9985 19.0352 12.6394C19.5593 13.2755 19.8214 14.1373 19.8214 15.2249C19.8214 16.3174 19.5481 17.1793 19.0016 17.8105C18.4594 18.4368 17.7001 18.75 16.7234 18.75C15.8587 18.75 15.1531 18.4902 14.6065 17.9707C14.0599 17.4512 13.7485 16.7326 13.6723 15.8149H14.8484C14.9246 16.4218 15.1239 16.8806 15.4465 17.1914C15.7691 17.4973 16.1947 17.6502 16.7234 17.6502C17.3013 17.6502 17.7538 17.4366 18.0809 17.0093C18.4124 16.582 18.5782 15.9921 18.5782 15.2395C18.5782 14.5306 18.399 13.9625 18.0405 13.5352C17.6866 13.1031 17.2139 12.887 16.6226 12.887C16.0805 12.887 15.6548 13.0157 15.3457 13.273L15.0164 13.5644L14.0218 13.2876Z" fill="#AFAFBF"/>
<path fill-rule="evenodd" clip-rule="evenodd" d="M22.8926 11.8393C23.3167 11.8393 23.6605 11.4956 23.6605 11.0715C23.6605 10.6474 23.3167 10.3036 22.8926 10.3036C22.4686 10.3036 22.1248 10.6474 22.1248 11.0715C22.1248 11.4956 22.4686 11.8393 22.8926 11.8393ZM22.8926 12.6072C23.7408 12.6072 24.4284 11.9196 24.4284 11.0715C24.4284 10.2233 23.7408 9.53577 22.8926 9.53577C22.0445 9.53577 21.3569 10.2233 21.3569 11.0715C21.3569 11.9196 22.0445 12.6072 22.8926 12.6072Z" fill="#AFAFBF"/>
</svg>
