<svg width="26" height="19" viewBox="0 0 26 19" fill="none" xmlns="http://www.w3.org/2000/svg">
<path d="M13.3545 4.1254L16.4186 7.18956C16.6138 7.38472 16.9306 7.38472 17.1257 7.18956C17.3209 6.9944 17.3209 6.67761 17.1257 6.48245L14.4151 3.77185L17.1257 1.06125C17.3209 0.866086 17.3209 0.549302 17.1257 0.35414C16.9306 0.158979 16.6138 0.158979 16.4186 0.35414L13.3545 3.4183C13.1593 3.61346 13.1593 3.93024 13.3545 4.1254Z" fill="#AFAFBF"/>
<path d="M13.3541 4.1248C13.5012 4.27187 13.7298 4.31672 13.9265 4.22096C16.0106 3.20596 18.4797 3.59354 20.0717 5.18546C21.6637 6.77746 22.0512 9.24659 21.0362 11.3307C20.915 11.5792 21.0179 11.8779 21.2671 11.9991C21.5151 12.1198 21.8145 12.0165 21.9356 11.7682C23.1367 9.30086 22.672 6.37154 20.7788 4.47835C18.8856 2.58516 15.9563 2.12037 13.4889 3.32152C13.2406 3.44266 13.1379 3.74158 13.258 3.99C13.2829 4.04132 13.316 4.08665 13.3541 4.1248Z" fill="#AFAFBF"/>
<path d="M5.70554 15.0429H7.06304V16.1426H5.70554V18.6043H4.45556V16.1426H0V15.3487L4.38164 8H5.70554V15.0429ZM1.41126 15.0429H4.45556V9.84265L4.30772 10.134L1.41126 15.0429Z" fill="#AFAFBF"/>
<path d="M8.0218 13.2876L8.51911 8H13.5325V9.24543H9.57419L9.2785 12.1369C9.75788 11.831 10.3022 11.678 10.9115 11.678C11.8031 11.678 12.511 11.9985 13.0352 12.6394C13.5593 13.2755 13.8214 14.1373 13.8214 15.2249C13.8214 16.3174 13.5481 17.1793 13.0016 17.8105C12.4594 18.4368 11.7001 18.75 10.7234 18.75C9.85869 18.75 9.15306 18.4902 8.60647 17.9707C8.05989 17.4512 7.74851 16.7326 7.67235 15.8149H8.8484C8.92457 16.4218 9.12393 16.8806 9.44651 17.1914C9.76908 17.4973 10.1947 17.6502 10.7234 17.6502C11.3013 17.6502 11.7538 17.4366 12.0809 17.0093C12.4124 16.582 12.5782 15.9921 12.5782 15.2395C12.5782 14.5306 12.399 13.9625 12.0405 13.5352C11.6866 13.1031 11.2139 12.887 10.6226 12.887C10.0805 12.887 9.65484 13.0157 9.34571 13.273L9.01641 13.5644L8.0218 13.2876Z" fill="#AFAFBF"/>
<path fill-rule="evenodd" clip-rule="evenodd" d="M16.8926 11.8393C17.3167 11.8393 17.6605 11.4956 17.6605 11.0715C17.6605 10.6474 17.3167 10.3036 16.8926 10.3036C16.4686 10.3036 16.1248 10.6474 16.1248 11.0715C16.1248 11.4956 16.4686 11.8393 16.8926 11.8393ZM16.8926 12.6072C17.7408 12.6072 18.4284 11.9196 18.4284 11.0715C18.4284 10.2233 17.7408 9.53577 16.8926 9.53577C16.0445 9.53577 15.3569 10.2233 15.3569 11.0715C15.3569 11.9196 16.0445 12.6072 16.8926 12.6072Z" fill="#AFAFBF"/>
</svg>
