<svg width="16" height="17" viewBox="0 0 16 17" fill="none" xmlns="http://www.w3.org/2000/svg">
<path d="M0.833372 13.9999C0.374023 13.9999 0 13.6258 0 13.1665V4.16651C0 3.7072 0.374023 3.33325 0.833372 3.33325C1.05262 3.33325 1.26135 3.42057 1.42005 3.57988C1.42871 3.58845 1.47669 3.64319 1.48462 3.65257L5.70731 7.87314C5.912 8.07051 6 8.27919 6 8.49988C6 8.70651 5.92469 8.90457 5.78663 9.0592L1.44665 13.7331C1.29871 13.8978 1.06799 13.9999 0.833372 13.9999ZM0.712652 13.0538C0.711303 13.0552 0.709348 13.0573 0.70728 13.0592L0.712652 13.0538ZM1 4.57988V12.7453L4.93394 8.50857L1 4.57988ZM5.04663 8.62125H5.05394H5.04663Z" fill="#AFAFBF"/>
<path d="M15.1666 13.9998C14.932 13.9998 14.7013 13.8977 14.5473 13.7271L10.22 9.06638C10.0753 8.90433 10 8.70638 10 8.49975C10 8.27838 10.0886 8.06901 10.2487 7.91107C10.2567 7.90307 10.3106 7.85564 10.3187 7.84833L14.54 3.62638C15.1566 2.98913 16 3.48707 16 4.16638V13.1664C16 13.6257 15.6259 13.9998 15.1666 13.9998ZM15.2819 13.0484L15.2866 13.053C15.2853 13.0511 15.2841 13.0498 15.2819 13.0484ZM11.0694 8.51107L15 12.7443V4.5737L11.0694 8.51107Z" fill="#AFAFBF"/>
<path d="M2.66638 1.49939C2.66638 1.04004 3.04044 0.666015 3.49975 0.666015L12.4998 0.666016C12.9591 0.666016 13.333 1.04004 13.333 1.49939C13.333 1.71863 13.2457 1.92736 13.0864 2.08606C13.0778 2.09472 13.0231 2.1427 13.0137 2.15063L8.79312 6.37333C8.59575 6.57802 8.38707 6.66602 8.16638 6.66602C7.95975 6.66602 7.76169 6.5907 7.60706 6.45264L2.93312 2.11267C2.76844 1.96472 2.66638 1.734 2.66638 1.49939ZM3.61244 1.37867C3.61106 1.37732 3.60901 1.37536 3.60707 1.3733L3.61244 1.37867ZM12.0864 1.66602L3.92101 1.66602L8.15769 5.59996L12.0864 1.66602ZM8.04501 5.71264L8.04501 5.71996L8.04501 5.71264Z" fill="#AFAFBF"/>
<path d="M2.66626 15.8326C2.66626 15.598 2.76832 15.3673 2.93895 15.2133L7.59963 10.886C7.76169 10.7413 7.95963 10.666 8.16626 10.666C8.38763 10.666 8.597 10.7546 8.75495 10.9147C8.76295 10.9227 8.81038 10.9766 8.81769 10.9848L13.0396 15.206C13.6769 15.8226 13.1789 16.666 12.4996 16.666L3.49963 16.666C3.04032 16.666 2.66626 16.292 2.66626 15.8326ZM3.61757 15.948L3.613 15.9526C3.61495 15.9513 3.6162 15.9501 3.61757 15.948ZM8.15495 11.7354L3.92169 15.666L12.0923 15.666L8.15495 11.7354Z" fill="#AFAFBF"/>
</svg>
