<svg width="18" height="19" viewBox="0 0 18 19" fill="none" xmlns="http://www.w3.org/2000/svg">
<path d="M8.79023 4.13983C7.00364 4.13983 6.18311 5.19902 6.18311 5.91398C6.18311 6.43038 6.61982 6.66866 6.97712 6.66866C7.69183 6.66866 7.40064 5.64918 8.75051 5.64918C9.41219 5.64918 9.94153 5.94037 9.94153 6.54952C9.94153 7.26448 9.20043 7.67494 8.76371 8.04568C8.3799 8.3767 7.87708 8.91949 7.87708 10.0581C7.87708 10.7467 8.06232 10.9452 8.60486 10.9452C9.25334 10.9452 9.38567 10.6541 9.38567 10.4025C9.38567 9.71388 9.39887 9.31675 10.1268 8.74744C10.4841 8.46933 11.609 7.56899 11.609 6.32443C11.6091 5.07975 10.4842 4.13983 8.79023 4.13983Z" fill="#AFAFBF"/>
<path d="M8.61857 11.8594C8.06271 11.8594 7.61279 12.3229 7.61279 12.879C7.61279 13.4218 8.04951 13.8985 8.61857 13.8985C9.18762 13.8985 9.63754 13.4218 9.63754 12.879C9.63754 12.3229 9.17443 11.8594 8.61857 11.8594Z" fill="#AFAFBF"/>
<path d="M8.91009 0.0744019C3.9854 0.0744019 0 4.06131 0 8.98838C0 11.3504 0.918405 13.4965 2.41074 15.0856L0.567748 18.082C0.280154 18.5495 0.781521 19.1053 1.27591 18.8697L5.09749 17.0474C6.2919 17.6149 7.57303 17.9024 8.91009 17.9024C13.8349 17.9024 17.8203 13.9155 17.8203 8.98838C17.8203 4.06395 13.8378 0.0744019 8.91009 0.0744019ZM8.91009 16.7979C7.65711 16.7979 6.46056 16.51 5.35374 15.9422C5.20055 15.8637 5.01945 15.861 4.86386 15.9352L2.48813 17.068L3.57834 15.2956C3.71419 15.0748 3.678 14.7892 3.4915 14.6091C1.95224 13.1232 1.10457 11.1271 1.10457 8.98838C1.10457 4.68214 4.6061 1.17882 8.91009 1.17882C13.2142 1.17882 16.7157 4.68214 16.7157 8.98838C16.7157 13.2946 13.2142 16.7979 8.91009 16.7979Z" fill="#AFAFBF"/>
</svg>
