<svg width="19" height="15" viewBox="0 0 19 15" fill="none" xmlns="http://www.w3.org/2000/svg">
<path fill-rule="evenodd" clip-rule="evenodd" d="M4.28107 0L8.42147 4.2784C8.61347 4.4769 8.60837 4.7934 8.40987 4.9854C8.21147 5.1775 7.89487 5.1723 7.70287 4.9738L4.28107 1.43798L0.859267 4.9738C0.667267 5.1723 0.350668 5.1775 0.152268 4.9854C-0.0461325 4.7934 -0.051332 4.4769 0.140668 4.2784L4.28107 0Z" fill="#AFAFBF"/>
<path fill-rule="evenodd" clip-rule="evenodd" d="M2.76855 3.22412C3.04465 3.22412 3.26855 3.49542 3.26855 3.83012V14.3938C3.26855 14.7284 3.04465 14.9997 2.76855 14.9997C2.49235 14.9997 2.26855 14.7284 2.26855 14.3938V3.83012C2.26855 3.49542 2.49235 3.22412 2.76855 3.22412Z" fill="#AFAFBF"/>
<path fill-rule="evenodd" clip-rule="evenodd" d="M5.79395 3.22412C6.07015 3.22412 6.29395 3.49542 6.29395 3.83012V14.3938C6.29395 14.7284 6.07015 14.9997 5.79395 14.9997C5.51785 14.9997 5.29395 14.7284 5.29395 14.3938V3.83012C5.29395 3.49542 5.51785 3.22412 5.79395 3.22412Z" fill="#AFAFBF"/>
<path fill-rule="evenodd" clip-rule="evenodd" d="M14.2814 14.9998L10.141 10.7214C9.94903 10.5229 9.95413 10.2064 10.1526 10.0144C10.351 9.82225 10.6676 9.82746 10.8596 10.026L14.2814 13.5618L17.7032 10.026C17.8952 9.82746 18.2118 9.82226 18.4102 10.0144C18.6086 10.2064 18.6138 10.5229 18.4218 10.7214L14.2814 14.9998Z" fill="#AFAFBF"/>
<path fill-rule="evenodd" clip-rule="evenodd" d="M15.7939 11.7756C15.5178 11.7756 15.2939 11.5043 15.2939 11.1696L15.2939 0.605934C15.2939 0.271334 15.5178 3.42644e-05 15.7939 3.42886e-05C16.0701 3.43127e-05 16.2939 0.271334 16.2939 0.605934L16.2939 11.1696C16.2939 11.5043 16.0701 11.7756 15.7939 11.7756Z" fill="#AFAFBF"/>
<path fill-rule="evenodd" clip-rule="evenodd" d="M12.7686 11.7756C12.4924 11.7756 12.2686 11.5043 12.2686 11.1696L12.2686 0.605934C12.2686 0.271334 12.4924 3.42644e-05 12.7686 3.42886e-05C13.0447 3.43127e-05 13.2686 0.271334 13.2686 0.605934L13.2686 11.1696C13.2686 11.5043 13.0447 11.7756 12.7686 11.7756Z" fill="#AFAFBF"/>
</svg>
