<svg width="9" height="15" viewBox="0 0 9 15" fill="none" xmlns="http://www.w3.org/2000/svg">
<path fill-rule="evenodd" clip-rule="evenodd" d="M4.28107 0L8.42147 4.2784C8.61347 4.4769 8.60837 4.7934 8.40987 4.9854C8.21147 5.1775 7.89487 5.1723 7.70287 4.9738L4.28107 1.43798L0.859267 4.9738C0.667267 5.1723 0.350668 5.1775 0.152268 4.9854C-0.0461325 4.7934 -0.051332 4.4769 0.140668 4.2784L4.28107 0Z" fill="#AFAFBF"/>
<path fill-rule="evenodd" clip-rule="evenodd" d="M2.76855 3.22409C3.04465 3.22409 3.26855 3.49539 3.26855 3.83009V14.3938C3.26855 14.7284 3.04465 14.9997 2.76855 14.9997C2.49235 14.9997 2.26855 14.7284 2.26855 14.3938V3.83009C2.26855 3.49539 2.49235 3.22409 2.76855 3.22409Z" fill="#AFAFBF"/>
<path fill-rule="evenodd" clip-rule="evenodd" d="M5.79395 3.22409C6.07015 3.22409 6.29395 3.49539 6.29395 3.83009V14.3938C6.29395 14.7284 6.07015 14.9997 5.79395 14.9997C5.51785 14.9997 5.29395 14.7284 5.29395 14.3938V3.83009C5.29395 3.49539 5.51785 3.22409 5.79395 3.22409Z" fill="#AFAFBF"/>
</svg>
