<svg width="9" height="15" viewBox="0 0 9 15" fill="none" xmlns="http://www.w3.org/2000/svg">
<path fill-rule="evenodd" clip-rule="evenodd" d="M4.28143 14.7756L0.141034 10.4972C-0.0509668 10.2987 -0.0458675 9.98223 0.152632 9.79023C0.351032 9.59813 0.667633 9.60333 0.859633 9.80183L4.28143 13.3377L7.70323 9.80183C7.89523 9.60333 8.21183 9.59813 8.41023 9.79023C8.60863 9.98223 8.61383 10.2987 8.42183 10.4972L4.28143 14.7756Z" fill="#AFAFBF"/>
<path fill-rule="evenodd" clip-rule="evenodd" d="M4.0625 11.7756C3.7864 11.7756 3.5625 11.5043 3.5625 11.1696L3.5625 0.605934C3.5625 0.271334 3.7864 3.42644e-05 4.0625 3.42886e-05C4.3387 3.43127e-05 4.5625 0.271334 4.5625 0.605934L4.5625 11.1696C4.5625 11.5043 4.3387 11.7756 4.0625 11.7756Z" fill="#AFAFBF"/>
</svg>
