<svg width="9" height="15" viewBox="0 0 9 15" fill="none" xmlns="http://www.w3.org/2000/svg">
<path fill-rule="evenodd" clip-rule="evenodd" d="M4.28107 0L8.42147 4.2784C8.61347 4.4769 8.60837 4.7934 8.40987 4.9854C8.21147 5.1775 7.89487 5.1723 7.70287 4.9738L4.28107 1.43798L0.859267 4.9738C0.667267 5.1723 0.350668 5.1775 0.152268 4.9854C-0.0461325 4.7934 -0.051332 4.4769 0.140668 4.2784L4.28107 0Z" fill="#AFAFBF"/>
<path fill-rule="evenodd" clip-rule="evenodd" d="M4.5 3C4.7761 3 5 3.2713 5 3.606V14.1697C5 14.5043 4.7761 14.7756 4.5 14.7756C4.2238 14.7756 4 14.5043 4 14.1697V3.606C4 3.2713 4.2238 3 4.5 3Z" fill="#AFAFBF"/>
</svg>
