<svg width="9" height="15" viewBox="0 0 9 15" fill="none" xmlns="http://www.w3.org/2000/svg">
<path fill-rule="evenodd" clip-rule="evenodd" d="M4.28143 14.9998L0.141034 10.7214C-0.0509668 10.5229 -0.0458675 10.2064 0.152632 10.0144C0.351032 9.82225 0.667633 9.82746 0.859633 10.026L4.28143 13.5618L7.70323 10.026C7.89523 9.82746 8.21183 9.82226 8.41023 10.0144C8.60863 10.2064 8.61383 10.5229 8.42183 10.7214L4.28143 14.9998Z" fill="#AFAFBF"/>
<path fill-rule="evenodd" clip-rule="evenodd" d="M5.79395 11.7756C5.51785 11.7756 5.29395 11.5043 5.29395 11.1696L5.29395 0.605934C5.29395 0.271334 5.51785 3.42644e-05 5.79395 3.42886e-05C6.07015 3.43127e-05 6.29395 0.271334 6.29395 0.605934L6.29395 11.1696C6.29395 11.5043 6.07015 11.7756 5.79395 11.7756Z" fill="#AFAFBF"/>
<path fill-rule="evenodd" clip-rule="evenodd" d="M2.76855 11.7756C2.49235 11.7756 2.26855 11.5043 2.26855 11.1696L2.26856 0.605934C2.26856 0.271334 2.49236 3.42644e-05 2.76856 3.42886e-05C3.04466 3.43127e-05 3.26856 0.271334 3.26856 0.605934L3.26855 11.1696C3.26855 11.5043 3.04465 11.7756 2.76855 11.7756Z" fill="#AFAFBF"/>
</svg>
