<svg width="16" height="18" viewBox="0 0 16 18" fill="none" xmlns="http://www.w3.org/2000/svg">
<path fill-rule="evenodd" clip-rule="evenodd" d="M0.5 0C0.2239 0 -1.19209e-07 0.22386 -1.19209e-07 0.5V17.125C-1.19209e-07 17.4011 0.2239 17.625 0.5 17.625C0.7761 17.625 1 17.4011 1 17.125V0.5C1 0.22386 0.7761 0 0.5 0Z" fill="#AFAFBF"/>
<path fill-rule="evenodd" clip-rule="evenodd" d="M4.25 5.4375H9C9.5523 5.4375 10 5.8852 10 6.4375V6.8125C10 7.3648 9.5523 7.8125 9 7.8125H4.25C3.6977 7.8125 3.25 7.3648 3.25 6.8125V6.4375C3.25 5.8852 3.6977 5.4375 4.25 5.4375ZM9 4.4375C10.1046 4.4375 11 5.3329 11 6.4375V6.8125C11 7.9171 10.1046 8.8125 9 8.8125H4.25C3.1454 8.8125 2.25 7.9171 2.25 6.8125V6.4375C2.25 5.3329 3.1454 4.4375 4.25 4.4375H9Z" fill="#AFAFBF"/>
<path fill-rule="evenodd" clip-rule="evenodd" d="M4 11.5625H14C14.5523 11.5625 15 12.0102 15 12.5625V12.9375C15 13.4898 14.5523 13.9375 14 13.9375H4C3.4477 13.9375 3 13.4898 3 12.9375V12.5625C3 12.0102 3.4477 11.5625 4 11.5625ZM14 10.5625C15.1046 10.5625 16 11.4579 16 12.5625V12.9375C16 14.0421 15.1046 14.9375 14 14.9375H4C2.8954 14.9375 2 14.0421 2 12.9375V12.5625C2 11.4579 2.8954 10.5625 4 10.5625H14Z" fill="#AFAFBF"/>
</svg>
