<svg width="9" height="14" viewBox="0 0 9 14" fill="none" xmlns="http://www.w3.org/2000/svg">
<path d="M0 6H9V7H0V6Z" fill="#AFAFBF"/>
<path d="M6.7364 13.0408L4.5136 13C3.5377 13 2.7289 13.0363 2.0873 13.1088C2.0422 13.0544 2.0196 12.9773 2.0196 12.8776L2.0331 12.7687C2.6566 12.6689 3.0678 12.542 3.2666 12.3878C3.4654 12.2245 3.5964 11.9615 3.6596 11.5986C3.7861 10.9274 3.8494 6.6939 3.8494 5.1156C3.8494 3.5374 3.8313 2.4354 3.7952 1.80952C3.759 1.18367 3.7139 0.79365 3.6596 0.63946C3.4337 0.5941 3.1581 0.57143 2.8328 0.57143C2.0738 0.57143 1.4819 0.6712 1.0572 0.87075L0.4608 2.3673C0.253 2.3673 0.0994 2.3311 0 2.2585L0.2169 0.14966C0.2169 0.0498901 0.2937 0 0.4473 0L2.8328 0.0952396H6.1536L8.756 0C8.9187 0 9 0.0498901 9 0.14966C8.8554 0.94785 8.7831 1.67801 8.7831 2.3401C8.7108 2.3764 8.6205 2.3946 8.512 2.3946C8.4036 2.3946 8.3178 2.3764 8.2545 2.3401C8.0919 1.44218 8.0015 0.95238 7.9834 0.87075C7.5316 0.6712 6.9127 0.57143 6.1265 0.57143C5.7741 0.57143 5.4895 0.5941 5.2726 0.63946C5.2455 0.72109 5.2093 1.09751 5.1642 1.76871C5.128 2.4399 5.1099 3.3016 5.1099 4.3537V9.898C5.1099 10.9048 5.1822 11.78 5.3268 12.5238C5.7425 12.5873 6.2123 12.619 6.7364 12.619C6.7636 12.6916 6.7771 12.7732 6.7771 12.8639C6.7771 12.9456 6.7636 13.0045 6.7364 13.0408Z" fill="#AFAFBF"/>
</svg>
