<svg width="13" height="16" viewBox="0 0 13 16" fill="none" xmlns="http://www.w3.org/2000/svg">
<path fill-rule="evenodd" clip-rule="evenodd" d="M6 11C6 11.2761 6.2239 11.5 6.5 11.5C6.7761 11.5 7 11.2761 7 11C7 10.7239 6.7761 10.5 6.5 10.5C6.2239 10.5 6 10.7239 6 11ZM6.5 9.5C5.6716 9.5 5 10.1716 5 11C5 11.8284 5.6716 12.5 6.5 12.5C7.3284 12.5 8 11.8284 8 11C8 10.1716 7.3284 9.5 6.5 9.5Z" fill="#AFAFBF"/>
<path fill-rule="evenodd" clip-rule="evenodd" d="M11 7.5H2C1.4477 7.5 1 7.9477 1 8.5V13.5C1 14.0523 1.4477 14.5 2 14.5H11C11.5523 14.5 12 14.0523 12 13.5V8.5C12 7.9477 11.5523 7.5 11 7.5ZM2 6.5C0.89543 6.5 0 7.3954 0 8.5V13.5C0 14.6046 0.89543 15.5 2 15.5H11C12.1046 15.5 13 14.6046 13 13.5V8.5C13 7.3954 12.1046 6.5 11 6.5H2Z" fill="#AFAFBF"/>
<path fill-rule="evenodd" clip-rule="evenodd" d="M1.5 3.5C1.5 1.567 3.067 0 5 0H8C9.933 0 11.5 1.567 11.5 3.5V6.5C11.5 6.7761 11.2761 7 11 7C10.7239 7 10.5 6.7761 10.5 6.5V3.5C10.5 2.11929 9.3807 1 8 1H5C3.6193 1 2.5 2.11929 2.5 3.5V6.5C2.5 6.7761 2.2761 7 2 7C1.7239 7 1.5 6.7761 1.5 6.5V3.5Z" fill="#AFAFBF"/>
</svg>
