<svg width="17" height="14" viewBox="0 0 17 14" fill="none" xmlns="http://www.w3.org/2000/svg">
<path d="M14.0297 5.91026C13.9676 5.84986 13.8815 5.81506 13.7937 5.81506C13.7059 5.81506 13.6198 5.84986 13.5577 5.91026C13.4957 5.97066 13.46 6.05446 13.46 6.13986C13.46 6.22526 13.4957 6.30906 13.5577 6.36946C13.6198 6.42996 13.7059 6.46466 13.7937 6.46466C13.8815 6.46466 13.9676 6.42996 14.0297 6.36946C14.0918 6.30906 14.1275 6.22526 14.1275 6.13986C14.1275 6.05446 14.0918 5.97066 14.0297 5.91026Z" fill="#AFAFBF"/>
<path d="M16.6663 13.3503H16.3131L14.5016 7.3337C14.4497 7.1615 14.2643 7.063 14.0874 7.1133C13.9105 7.1637 13.8091 7.3442 13.861 7.5163L14.4591 9.5028H9.628L12.0435 1.47998L13.1117 5.0279C13.1635 5.2 13.3489 5.2987 13.5259 5.2482C13.7028 5.1978 13.8042 5.0174 13.7523 4.8452L12.3638 0.23348C12.3221 0.0950904 12.1917 0 12.0435 0C11.8953 0 11.7649 0.0950904 11.7232 0.23348L8.8639 9.7304L8.8633 9.7322L7.774 13.3502H7.4208C7.2656 13.3502 7.1355 13.4535 7.0981 13.5931C7.0608 13.4535 6.9307 13.3502 6.7755 13.3502C6.4994 13.3502 6.2748 13.1317 6.2748 12.8631V7.4563C6.2748 6.5513 5.5183 5.8151 4.5883 5.8151H3.4156C3.2312 5.8151 3.0818 5.9605 3.0818 6.1399C3.0818 6.3192 3.2312 6.4646 3.4156 6.4646H4.5883C5.1502 6.4646 5.6073 6.9095 5.6073 7.4563V7.8937H3.1374C1.40742 7.8937 0 9.2633 0 10.9468C0 12.6303 1.40742 13.9999 3.1374 13.9999H4.6293C5.0944 13.9999 5.5147 13.8109 5.8142 13.508C6.0252 13.8049 6.3773 13.9999 6.7755 13.9999C6.9307 13.9999 7.0608 13.8966 7.0982 13.757C7.1355 13.8966 7.2656 13.9999 7.4208 13.9999H8.0228L8.0241 14L8.0265 13.9999H8.6272C8.8115 13.9999 8.9609 13.8545 8.9609 13.6751C8.9609 13.4958 8.8115 13.3503 8.6272 13.3503H8.4696L9.4324 10.1524H14.6547L15.6175 13.3503H15.4599C15.2756 13.3503 15.1261 13.4958 15.1261 13.6751C15.1261 13.8545 15.2756 13.9999 15.4599 13.9999H16.0605L16.0629 14L16.0643 13.9999H16.6662C16.8506 13.9999 17 13.8545 17 13.6751C17 13.4957 16.8506 13.3503 16.6663 13.3503ZM5.6073 12.3986C5.6073 12.9234 5.1685 13.3503 4.6293 13.3503H3.1374C1.77551 13.3503 0.66752 12.2721 0.66752 10.9468C0.66752 9.6215 1.77551 8.5433 3.1374 8.5433H5.6073V12.3986Z" fill="#AFAFBF"/>
<path d="M2.3295 5.91026C2.26741 5.84956 2.18131 5.81506 2.09352 5.81506C2.00573 5.81506 1.91963 5.84956 1.85754 5.91026C1.79545 5.97066 1.75977 6.05416 1.75977 6.13986C1.75977 6.22526 1.79549 6.30906 1.85754 6.36946C1.91963 6.42996 2.00573 6.46466 2.09352 6.46466C2.18131 6.46466 2.26741 6.42996 2.3295 6.36946C2.39159 6.30906 2.42728 6.22526 2.42728 6.13986C2.42728 6.05446 2.39159 5.97066 2.3295 5.91026Z" fill="#AFAFBF"/>
</svg>
