<svg width="17" height="17" viewBox="0 0 17 17" fill="none" xmlns="http://www.w3.org/2000/svg">
<path fill-rule="evenodd" clip-rule="evenodd" d="M16.8008 0.19917C17.0664 0.46472 17.0664 0.895279 16.8008 1.16083L1.16083 16.8008C0.895279 17.0664 0.46472 17.0664 0.19917 16.8008C-0.06639 16.5353 -0.06639 16.1047 0.19917 15.8392L15.8392 0.19917C16.1047 -0.06639 16.5353 -0.06639 16.8008 0.19917Z" fill="#AFAFBF"/>
<path fill-rule="evenodd" clip-rule="evenodd" d="M11.5875 0.19917C11.8531 0.46472 11.8531 0.895279 11.5875 1.16083L1.16083 11.5875C0.895279 11.8531 0.46472 11.8531 0.19917 11.5875C-0.06639 11.3219 -0.06639 10.8914 0.19917 10.6258L10.6258 0.19917C10.8914 -0.06639 11.3219 -0.06639 11.5875 0.19917Z" fill="#AFAFBF"/>
<path fill-rule="evenodd" clip-rule="evenodd" d="M6.3742 0.19917C6.6397 0.46472 6.6397 0.895279 6.3742 1.16083L1.16083 6.3742C0.895279 6.6397 0.46472 6.6397 0.19917 6.3742C-0.06639 6.1086 -0.06639 5.6781 0.19917 5.4125L5.4125 0.19917C5.6781 -0.06639 6.1086 -0.06639 6.3742 0.19917Z" fill="#AFAFBF"/>
<path fill-rule="evenodd" clip-rule="evenodd" d="M16.8009 10.6259C17.0665 10.8915 17.0665 11.322 16.8009 11.5876L11.5876 16.8009C11.322 17.0665 10.8915 17.0665 10.6259 16.8009C10.3604 16.5354 10.3604 16.1048 10.6259 15.8393L15.8393 10.6259C16.1048 10.3604 16.5354 10.3604 16.8009 10.6259Z" fill="#AFAFBF"/>
<path fill-rule="evenodd" clip-rule="evenodd" d="M1.53321 0.19917C1.79877 0.46472 1.79877 0.895279 1.53321 1.16083L1.16083 1.53321C0.895279 1.79877 0.46472 1.79877 0.19917 1.53321C-0.06639 1.26766 -0.06639 0.8371 0.19917 0.57155L0.57155 0.19917C0.8371 -0.06639 1.26766 -0.06639 1.53321 0.19917Z" fill="#AFAFBF"/>
<path fill-rule="evenodd" clip-rule="evenodd" d="M16.4287 15.0942C16.6943 15.3597 16.6943 15.7903 16.4287 16.0559L16.0563 16.4282C15.7908 16.6938 15.3602 16.6938 15.0947 16.4282C14.8291 16.1627 14.8291 15.7321 15.0947 15.4666L15.4671 15.0942C15.7326 14.8286 16.1632 14.8286 16.4287 15.0942Z" fill="#AFAFBF"/>
<path fill-rule="evenodd" clip-rule="evenodd" d="M16.8004 5.4125C17.0659 5.6781 17.0659 6.1087 16.8004 6.3742L6.37369 16.8009C6.10819 17.0664 5.67759 17.0664 5.41209 16.8009C5.14649 16.5353 5.14649 16.1048 5.41209 15.8392L15.8387 5.4125C16.1043 5.147 16.5348 5.147 16.8004 5.4125Z" fill="#AFAFBF"/>
</svg>
