<svg width="18" height="14" viewBox="0 0 18 14" fill="none" xmlns="http://www.w3.org/2000/svg">
<path fill-rule="evenodd" clip-rule="evenodd" d="M17.8125 7.00006C17.8125 7.27616 17.5886 7.50006 17.3125 7.50006L0.6875 7.50006C0.4114 7.50006 0.1875 7.27616 0.1875 7.00006C0.1875 6.72396 0.4114 6.50006 0.6875 6.50006L17.3125 6.50006C17.5886 6.50006 17.8125 6.72396 17.8125 7.00006Z" fill="#AFAFBF"/>
<path fill-rule="evenodd" clip-rule="evenodd" d="M12.375 9.375L12.375 4.625C12.375 4.0727 11.9273 3.625 11.375 3.625L11 3.625C10.4477 3.625 10 4.0727 10 4.625L10 9.375C10 9.9273 10.4477 10.375 11 10.375L11.375 10.375C11.9273 10.375 12.375 9.9273 12.375 9.375ZM13.375 4.625C13.375 3.5204 12.4796 2.625 11.375 2.625L11 2.625C9.8954 2.625 9 3.5204 9 4.625L9 9.375C9 10.4796 9.8954 11.375 11 11.375L11.375 11.375C12.4796 11.375 13.375 10.4796 13.375 9.375L13.375 4.625Z" fill="#AFAFBF"/>
<path fill-rule="evenodd" clip-rule="evenodd" d="M6.25 12L6.25 2C6.25 1.44772 5.8023 1 5.25 1L4.875 1C4.3227 1 3.875 1.44772 3.875 2L3.875 12C3.875 12.5523 4.3227 13 4.875 13L5.25 13C5.8023 13 6.25 12.5523 6.25 12ZM7.25 2C7.25 0.89543 6.3546 -3.91392e-08 5.25 -8.74228e-08L4.875 -1.03815e-07C3.7704 -1.52098e-07 2.875 0.89543 2.875 2L2.875 12C2.875 13.1046 3.7704 14 4.875 14L5.25 14C6.3546 14 7.25 13.1046 7.25 12L7.25 2Z" fill="#AFAFBF"/>
</svg>
