<svg width="14" height="14" viewBox="0 0 14 14" fill="none" xmlns="http://www.w3.org/2000/svg">
<path d="M0 2C0 0.89543 0.89543 0 2 0H7V7H0V2Z" fill="#707070"/>
<path d="M14 12C14 13.1046 13.1046 14 12 14H7V7H14V12Z" fill="#707070"/>
<path d="M12 0C13.1046 0 14 0.89543 14 2V7H7V0H12Z" fill="#262730"/>
<path d="M2 14C0.89543 14 0 13.1046 0 12V7H7V14H2Z" fill="#262730"/>
<path fill-rule="evenodd" clip-rule="evenodd" d="M12 1H2C1.44772 1 1 1.44772 1 2V12C1 12.5523 1.44772 13 2 13H12C12.5523 13 13 12.5523 13 12V2C13 1.44772 12.5523 1 12 1ZM2 0C0.89543 0 0 0.89543 0 2V12C0 13.1046 0.89543 14 2 14H12C13.1046 14 14 13.1046 14 12V2C14 0.89543 13.1046 0 12 0H2Z" fill="#AFAFBF"/>
<path fill-rule="evenodd" clip-rule="evenodd" d="M6.5 13V0.5H7.5V13H6.5Z" fill="#AFAFBF"/>
<path fill-rule="evenodd" clip-rule="evenodd" d="M0.75 6.25H13.25V7.25H0.75V6.25Z" fill="#AFAFBF"/>
</svg>
