<svg width="10" height="13" viewBox="0 0 10 13" fill="none" xmlns="http://www.w3.org/2000/svg">
<path d="M0 0H9V1H0V0Z" fill="#AFAFBF"/>
<path d="M1.4568 9.7223C1.4568 11.4605 1.9177 12.3296 2.8395 12.3296C3.465 12.3296 4.0494 11.9406 4.5926 11.1625C5.6296 9.7058 6.2634 7.7856 6.4938 5.4018C5.9177 5.1535 5.5144 4.7479 5.284 4.1851C5.1358 3.8375 5.0617 3.5478 5.0617 3.316C5.0617 3.0677 5.0947 2.8525 5.1605 2.6704C5.3086 2.2235 5.5802 2 5.9753 2C6.3704 2 6.6667 2.2566 6.8642 2.7698C7.0782 3.2664 7.1852 3.9037 7.1852 4.6817C7.1852 4.7314 7.1852 4.7893 7.1852 4.8555C7.3827 4.9217 7.6708 4.9549 8.0494 4.9549C8.4444 4.9549 8.7901 4.7976 9.0864 4.4831C9.3827 4.1685 9.5309 3.8789 9.5309 3.614C9.5309 3.5478 9.572 3.5064 9.6543 3.4898C9.7366 3.4567 9.8107 3.4567 9.8765 3.4898C9.9588 3.523 10 3.5726 10 3.6388C10 4.1189 9.7942 4.5741 9.3827 5.0045C8.9877 5.4349 8.4527 5.6501 7.7778 5.6501C7.6132 5.6501 7.3992 5.6336 7.1358 5.6005C7.037 6.7261 6.7984 7.8435 6.4198 8.9526C6.0576 10.0451 5.5473 10.997 4.8889 11.8081C4.2305 12.6027 3.5226 13 2.7654 13C1.3333 13 0.4527 12.2302 0.1235 10.6907C0.0411999 10.2438 0 9.7886 0 9.3251C0 8.2822 0.2387 7.1648 0.716 5.9729C1.3416 4.4169 2.1152 3.4485 3.037 3.0677C3.5144 2.9022 3.8436 2.8774 4.0247 2.9932C4.2058 3.1091 4.321 3.2415 4.3704 3.3905C3.6132 3.3905 2.9383 4.1023 2.3457 5.526C1.7531 6.9496 1.4568 8.3484 1.4568 9.7223Z" fill="#AFAFBF"/>
</svg>
