<svg width="19" height="18" viewBox="0 0 19 18" fill="none" xmlns="http://www.w3.org/2000/svg">
<path d="M9.9502 6.60001C10.7502 6.60001 11.4502 5.90001 11.4502 5.10001C11.4502 4.30001 10.7502 3.60001 9.9502 3.60001C9.1502 3.60001 8.4502 4.30001 8.4502 5.10001C8.4502 6.00001 9.1502 6.60001 9.9502 6.60001Z" fill="#595959"/>
<path fill-rule="evenodd" clip-rule="evenodd" d="M3.05029 7.62939e-06C1.45029 7.62939e-06 0.050293 1.40001 0.050293 3.00001V15C0.050293 16.7 1.45029 18 3.05029 18H15.0503C16.7503 18 18.0503 16.6 18.0503 15V3.00001C18.0503 1.30001 16.6503 7.62939e-06 15.0503 7.62939e-06H3.05029ZM1.35029 3.00001C1.35029 2.10001 2.15029 1.30001 3.05029 1.30001H15.0503C15.9503 1.30001 16.7503 2.10001 16.7503 3.00001V11.7L13.8503 8.80001L10.3503 12.3L5.35029 7.50001L1.35029 11.5V3.00001ZM9.95029 6.60001C10.7503 6.60001 11.4503 5.90001 11.4503 5.10001C11.4503 4.30001 10.7503 3.60001 9.95029 3.60001C9.15029 3.60001 8.45029 4.30001 8.45029 5.10001C8.45029 6.00001 9.15029 6.60001 9.95029 6.60001ZM1.35029 15C1.35029 15.9 2.15029 16.7 3.05029 16.7H12.6503L5.35029 9.30001L1.35029 13.3V15ZM16.7503 15C16.7503 15.9 15.9503 16.7 15.0503 16.7H14.6503L11.2503 13.3L13.8503 10.7L16.7503 13.6V15Z" fill="#595959"/>
</svg>
