<svg width="17" height="9" viewBox="0 0 17 9" fill="none" xmlns="http://www.w3.org/2000/svg">
<path d="M0.5625 9C0.252 9 0 8.784 0 8.51782V0.482175C0 0.216 0.252 0 0.5625 0C0.873 0 1.125 0.216 1.125 0.482175V8.51782C1.125 8.784 0.873 9 0.5625 9Z" fill="#AFAFBF"/>
<path d="M16.2422 6.75H10.7578C10.4085 6.75 10.125 6.4665 10.125 6.11719C10.125 5.76788 10.4085 5.48438 10.7578 5.48438H15.6094V0.632812C15.6094 0.2835 15.8929 0 16.2422 0C16.5915 0 16.875 0.2835 16.875 0.632812V6.11719C16.875 6.4665 16.5915 6.75 16.2422 6.75Z" fill="#AFAFBF"/>
<path d="M16.2655 6.74944C16.012 6.74944 15.7764 6.57394 15.6895 6.29505C14.7682 3.33686 12.3063 1.34989 9.5625 1.34989C6.81874 1.34989 4.3569 3.33686 3.43553 6.29505C3.32584 6.64785 2.97968 6.83482 2.6604 6.71254C2.34281 6.59092 2.17373 6.20662 2.28341 5.85405C3.37455 2.35237 6.29955 0 9.5625 0C12.8255 0 15.7505 2.35237 16.8416 5.85405C16.9512 6.20662 16.7822 6.59014 16.4646 6.71254C16.3988 6.73774 16.3313 6.74944 16.2655 6.74944Z" fill="#AFAFBF"/>
</svg>
