<svg width="17" height="18" viewBox="0 0 17 18" fill="none" xmlns="http://www.w3.org/2000/svg">
<path fill-rule="evenodd" clip-rule="evenodd" d="M15.1786 4.25H1.82143C1.48612 4.25 1.21429 4.52188 1.21429 4.85714C1.21429 5.19241 1.48612 5.46428 1.82143 5.46428H15.1786C15.5138 5.46428 15.7857 5.19241 15.7857 4.85714C15.7857 4.52188 15.5138 4.25 15.1786 4.25ZM1.82143 3.03571C0.815478 3.03571 0 3.85123 0 4.85714C0 5.86306 0.815478 6.67857 1.82143 6.67857H15.1786C16.1845 6.67857 17 5.86306 17 4.85714C17 3.85123 16.1845 3.03571 15.1786 3.03571H1.82143Z" fill="#AFAFBF"/>
<path fill-rule="evenodd" clip-rule="evenodd" d="M3.03564 3.03571C3.03564 1.35914 4.39479 0 6.07136 0H10.9285C12.6051 0 13.9642 1.35914 13.9642 3.03571V4.25H12.7499V3.03571C12.7499 2.02976 11.9344 1.21429 10.9285 1.21429H6.07136C5.06544 1.21429 4.24993 2.02976 4.24993 3.03571V4.25H3.03564V3.03571Z" fill="#AFAFBF"/>
<path fill-rule="evenodd" clip-rule="evenodd" d="M14.5715 6.67857H2.42864V15.1786C2.42864 15.8492 2.97228 16.3929 3.64293 16.3929H13.3572C14.0279 16.3929 14.5715 15.8492 14.5715 15.1786V6.67857ZM1.21436 5.46429V15.1786C1.21436 16.5199 2.30166 17.6071 3.64293 17.6071H13.3572C14.6985 17.6071 15.7858 16.5199 15.7858 15.1786V5.46429H1.21436Z" fill="#AFAFBF"/>
<path fill-rule="evenodd" clip-rule="evenodd" d="M6.0715 8.5C6.40676 8.5 6.67864 8.77188 6.67864 9.10714V13.9643C6.67864 14.2996 6.40676 14.5714 6.0715 14.5714C5.73623 14.5714 5.46436 14.2996 5.46436 13.9643V9.10714C5.46436 8.77188 5.73623 8.5 6.0715 8.5Z" fill="#AFAFBF"/>
<path fill-rule="evenodd" clip-rule="evenodd" d="M10.9284 8.5C11.2637 8.5 11.5356 8.77188 11.5356 9.10714V13.9643C11.5356 14.2996 11.2637 14.5714 10.9284 14.5714C10.5932 14.5714 10.3213 14.2996 10.3213 13.9643V9.10714C10.3213 8.77188 10.5932 8.5 10.9284 8.5Z" fill="#AFAFBF"/>
</svg>
