<svg width="18" height="18" viewBox="0 0 18 18" fill="none" xmlns="http://www.w3.org/2000/svg">
<path d="M9.86763 0.436949C9.50376 0.430988 9.20388 0.721145 9.19792 1.08502L9.06934 8.93059L16.9149 8.802C17.2788 8.79604 17.5689 8.49616 17.5629 8.1323C17.557 7.76843 17.2571 7.47829 16.8932 7.48425L11.357 7.575L17.1746 1.75739C17.3404 1.59164 17.2662 1.24866 17.0088 0.991324C16.7515 0.733978 16.4086 0.659734 16.2428 0.825474L10.4249 6.64338L10.5157 1.10663C10.5216 0.742738 10.2315 0.442923 9.86763 0.436949Z" fill="#AFAFBF"/>
<path d="M7.69544 18.0008C8.0593 18.0068 8.35918 17.7166 8.36514 17.3526L8.49373 9.50722L0.648163 9.6358C0.284285 9.64177 -0.00587079 9.94152 9.02272e-05 10.3054C0.00606341 10.6694 0.305879 10.9595 0.669769 10.9536L6.20591 10.8628L0.388347 16.6804C0.222594 16.8461 0.296852 17.189 0.554185 17.4464C0.811531 17.7037 1.15451 17.7779 1.32025 17.6123L7.13814 11.7944L7.04739 17.3311C7.04143 17.695 7.33157 17.9949 7.69544 18.0008Z" fill="#AFAFBF"/>
<path fill-rule="evenodd" clip-rule="evenodd" d="M15.8145 13.2105C16.1504 13.2105 16.4228 13.4828 16.4228 13.8187V16.8601H13.3815C13.0455 16.8601 12.7732 16.5877 12.7732 16.2518C12.7732 15.9159 13.0455 15.6435 13.3815 15.6435H15.2063V13.8187C15.2063 13.4828 15.4785 13.2105 15.8145 13.2105Z" fill="#AFAFBF"/>
<path fill-rule="evenodd" clip-rule="evenodd" d="M1.82482 5.30336C1.48889 5.30336 1.21655 5.0311 1.21655 4.6951V1.65381H4.25789C4.59377 1.65381 4.86616 1.92613 4.86616 2.26208C4.86616 2.59801 4.59377 2.87029 4.25789 2.87029H2.43309V4.6951C2.43309 5.0311 2.16075 5.30336 1.82482 5.30336Z" fill="#AFAFBF"/>
</svg>
