<svg width="16" height="18" viewBox="0 0 16 18" fill="none" xmlns="http://www.w3.org/2000/svg">
<path fill-rule="evenodd" clip-rule="evenodd" d="M15.5 17.625C15.7761 17.625 16 17.4011 16 17.125V0.5C16 0.2239 15.7761 0 15.5 0C15.2239 0 15 0.2239 15 0.5V17.125C15 17.4011 15.2239 17.625 15.5 17.625Z" fill="#AFAFBF"/>
<path fill-rule="evenodd" clip-rule="evenodd" d="M11.75 12.1875H7C6.4477 12.1875 6 11.7398 6 11.1875V10.8125C6 10.2602 6.4477 9.8125 7 9.8125H11.75C12.3023 9.8125 12.75 10.2602 12.75 10.8125V11.1875C12.75 11.7398 12.3023 12.1875 11.75 12.1875ZM7 13.1875C5.8954 13.1875 5 12.2921 5 11.1875V10.8125C5 9.7079 5.8954 8.8125 7 8.8125H11.75C12.8546 8.8125 13.75 9.7079 13.75 10.8125V11.1875C13.75 12.2921 12.8546 13.1875 11.75 13.1875H7Z" fill="#AFAFBF"/>
<path fill-rule="evenodd" clip-rule="evenodd" d="M12 6.0625H2C1.44772 6.0625 1 5.6148 1 5.0625V4.6875C1 4.1352 1.44772 3.6875 2 3.6875H12C12.5523 3.6875 13 4.1352 13 4.6875V5.0625C13 5.6148 12.5523 6.0625 12 6.0625ZM2 7.0625C0.89543 7.0625 0 6.1671 0 5.0625V4.6875C0 3.5829 0.89543 2.6875 2 2.6875H12C13.1046 2.6875 14 3.5829 14 4.6875V5.0625C14 6.1671 13.1046 7.0625 12 7.0625H2Z" fill="#AFAFBF"/>
</svg>
