<svg width="19" height="19" viewBox="0 0 19 19" fill="none" xmlns="http://www.w3.org/2000/svg">
<path d="M14.9286 10.8571C13.5818 10.8571 12.3949 11.5219 11.6534 12.5324L7.94811 10.6793C8.06284 10.3035 8.14286 9.91279 8.14286 9.49996C8.14286 9.08713 8.06284 8.69633 7.94811 8.32058L11.6534 6.4675C12.3949 7.47798 13.5818 8.14281 14.9286 8.14281C17.1737 8.14281 19 6.31648 19 4.07138C19 1.82628 17.1737 0 14.9286 0C12.6834 0 10.8571 1.82632 10.8571 4.07142C10.8571 4.48425 10.9372 4.87498 11.052 5.25073L7.34656 7.10388C6.60502 6.0934 5.41819 5.42858 4.07139 5.42858C1.82629 5.42858 0 7.25486 0 9.5C0 11.7451 1.82629 13.5714 4.07143 13.5714C5.41823 13.5714 6.60506 12.9066 7.3466 11.8961L11.0519 13.7493C10.9372 14.125 10.8571 14.5157 10.8571 14.9286C10.8571 17.1737 12.6834 19 14.9286 19C17.1737 19 19 17.1737 19 14.9286C19 12.6835 17.1737 10.8571 14.9286 10.8571ZM14.9286 1.35715C16.4256 1.35715 17.6428 2.57515 17.6428 4.07142C17.6428 5.56774 16.4255 6.78569 14.9286 6.78569C13.4316 6.78569 12.2143 5.5677 12.2143 4.07142C12.2143 2.57515 13.4316 1.35715 14.9286 1.35715ZM4.07143 12.2143C2.57445 12.2143 1.35716 10.9963 1.35716 9.5C1.35716 8.00369 2.57448 6.78573 4.07143 6.78573C5.56842 6.78573 6.78571 8.00373 6.78571 9.5C6.78571 10.9963 5.56842 12.2143 4.07143 12.2143ZM14.9286 17.6428C13.4316 17.6428 12.2143 16.4248 12.2143 14.9285C12.2143 13.4323 13.4316 12.2143 14.9286 12.2143C16.4256 12.2143 17.6428 13.4323 17.6428 14.9285C17.6428 16.4249 16.4256 17.6428 14.9286 17.6428Z" fill="#AFAFBF"/>
</svg>
