<svg width="18" height="19" viewBox="0 0 18 19" fill="none" xmlns="http://www.w3.org/2000/svg">
<path fill-rule="evenodd" clip-rule="evenodd" d="M1.6 1.40001C1.5 1.40001 1.4 1.50001 1.4 1.60001V16.5C1.4 16.6 1.5 16.7 1.6 16.7H4.5C4.6 16.7 4.7 16.6 4.7 16.5V1.60001C4.7 1.50001 4.6 1.40001 4.5 1.40001H1.6ZM0 1.60001C0 0.700008 0.7 7.62939e-06 1.6 7.62939e-06H4.5C5.4 7.62939e-06 6.1 0.700008 6.1 1.60001V16.5C6.1 17.4 5.4 18.1 4.5 18.1H1.6C0.7 18.1 0 17.4 0 16.5V1.60001Z" fill="#595959"/>
<path fill-rule="evenodd" clip-rule="evenodd" d="M8.9999 1.50001C8.8999 1.50001 8.7999 1.60001 8.7999 1.70001V5.00001C8.7999 5.10001 8.8999 5.20001 8.9999 5.20001H16.3999C16.4999 5.20001 16.5999 5.10001 16.5999 5.00001V1.70001C16.5999 1.60001 16.4999 1.50001 16.3999 1.50001H8.9999ZM7.3999 1.70001C7.3999 0.800014 8.0999 0.100014 8.9999 0.100014H16.3999C17.2999 0.100014 17.9999 0.800014 17.9999 1.70001V5.00001C17.9999 5.90001 17.2999 6.60001 16.3999 6.60001H8.9999C8.0999 6.60001 7.3999 5.90001 7.3999 5.00001V1.70001Z" fill="#595959"/>
<path fill-rule="evenodd" clip-rule="evenodd" d="M8.9999 9.40001C8.8999 9.40001 8.7999 9.50001 8.7999 9.60001V16.5C8.7999 16.6 8.8999 16.7 8.9999 16.7H16.3999C16.4999 16.7 16.5999 16.6 16.5999 16.5V9.60001C16.5999 9.50001 16.4999 9.40001 16.3999 9.40001H8.9999ZM7.3999 9.60001C7.3999 8.70001 8.0999 8.00001 8.9999 8.00001H16.3999C17.2999 8.00001 17.9999 8.70001 17.9999 9.60001V16.5C17.9999 17.4 17.2999 18.1 16.3999 18.1H8.9999C8.0999 18.1 7.3999 17.4 7.3999 16.5V9.60001Z" fill="#595959"/>
</svg>
