<svg width="9" height="11" viewBox="0 0 9 11" fill="none" xmlns="http://www.w3.org/2000/svg">
<path d="M0.3794 11C0.2782 11 0.1872 10.9633 0.1062 10.89C0.0354002 10.8062 0 10.7119 0 10.6071V0.39286C0 0.27762 0.0354002 0.18333 0.1062 0.11C0.1872 0.0366697 0.2782 0 0.3794 0H5.0084C6.2833 0 7.2293 0.27238 7.8465 0.81714C8.4739 1.3514 8.7875 2.1162 8.7875 3.1114C8.7875 3.6352 8.656 4.0805 8.3929 4.4471C8.14 4.8033 7.8516 5.0652 7.5278 5.2329C7.9427 5.4319 8.2917 5.7514 8.575 6.1914C8.8583 6.6314 9 7.1238 9 7.6686C9 8.7162 8.6661 9.5333 7.9983 10.12C7.3305 10.7067 6.3794 11 5.145 11H0.3794ZM4.7049 4.3686C5.1096 4.3686 5.4182 4.2638 5.6307 4.0543C5.8432 3.8343 5.9494 3.5462 5.9494 3.19C5.9494 2.8443 5.8432 2.5667 5.6307 2.3571C5.4182 2.1476 5.1096 2.0429 4.7049 2.0429H2.7319V4.3686H4.7049ZM4.8415 8.9571C5.2563 8.9571 5.5801 8.8314 5.8128 8.58C6.0455 8.3286 6.1619 8.0248 6.1619 7.6686C6.1619 7.2914 6.0455 6.9824 5.8128 6.7414C5.5801 6.49 5.2563 6.3643 4.8415 6.3643H2.7319V8.9571H4.8415Z" fill="#AFAFBF"/>
</svg>
