<svg width="17" height="16" viewBox="0 0 17 16" fill="none" xmlns="http://www.w3.org/2000/svg">
<path d="M1.35593 1.04294H0.834461C0.521577 1.04294 0.312988 0.834356 0.312988 0.521472C0.312988 0.208589 0.521577 0 0.834461 0H1.35593C1.66882 0 1.87741 0.208589 1.87741 0.521472C1.87741 0.834356 1.66882 1.04294 1.35593 1.04294Z" fill="#464646"/>
<path d="M12.8285 1.04294H11.8899C11.577 1.04294 11.3684 0.834356 11.3684 0.521472C11.3684 0.208589 11.577 0 11.8899 0H12.8285C13.1414 0 13.35 0.208589 13.35 0.521472C13.35 0.834356 13.1414 1.04294 12.8285 1.04294ZM8.96961 1.04294H8.03096C7.71807 1.04294 7.50948 0.834356 7.50948 0.521472C7.50948 0.208589 7.71807 0 8.03096 0H8.96961C9.28249 0 9.49108 0.208589 9.49108 0.521472C9.49108 0.834356 9.28249 1.04294 8.96961 1.04294ZM5.21501 1.04294H4.27636C3.96347 1.04294 3.75488 0.834356 3.75488 0.521472C3.75488 0.208589 3.96347 0 4.27636 0H5.21501C5.52789 0 5.73648 0.208589 5.73648 0.521472C5.73648 0.834356 5.52789 1.04294 5.21501 1.04294Z" fill="#464646"/>
<path d="M16.166 1.04294H15.6445C15.3316 1.04294 15.123 0.834356 15.123 0.521472C15.123 0.208589 15.3316 0 15.6445 0H16.166C16.4789 0 16.6875 0.208589 16.6875 0.521472C16.6875 0.834356 16.4789 1.04294 16.166 1.04294Z" fill="#464646"/>
<path d="M2.39917 5.84049H0.834751C0.521868 5.84049 0.208984 5.6319 0.208984 5.21473C0.208984 4.79755 0.521868 4.58896 0.834751 4.58896H2.39917C2.71205 4.58896 3.02494 4.90184 3.02494 5.21473C3.02494 5.52761 2.81635 5.84049 2.39917 5.84049Z" fill="#464646"/>
<path d="M10.221 5.84049H6.88358C6.5707 5.84049 6.25781 5.52761 6.25781 5.21473C6.25781 4.90184 6.5707 4.58896 6.88358 4.58896H10.221C10.5339 4.58896 10.8468 4.90184 10.8468 5.21473C10.8468 5.52761 10.5339 5.84049 10.221 5.84049Z" fill="#464646"/>
<path d="M16.1663 5.84049H14.6018C14.289 5.84049 13.9761 5.52761 13.9761 5.21473C13.9761 4.90184 14.289 4.58896 14.6018 4.58896H16.1663C16.4791 4.58896 16.792 4.90184 16.792 5.21473C16.792 5.52761 16.5834 5.84049 16.1663 5.84049Z" fill="#464646"/>
<path d="M16.1656 10.8466H0.834356C0.417178 10.8466 0 10.5337 0 10.0123C0 9.4908 0.312883 9.17792 0.834356 9.17792H16.1656C16.5828 9.17792 17 9.4908 17 10.0123C17 10.5337 16.5828 10.8466 16.1656 10.8466Z" fill="#5F5F5F"/>
<path d="M16.1656 15.5399H0.834356C0.417178 15.5399 0 15.227 0 14.7055C0 14.184 0.312883 13.8712 0.834356 13.8712H16.1656C16.5828 13.8712 17 14.184 17 14.7055C17 15.227 16.5828 15.5399 16.1656 15.5399Z" fill="#AFAFBF"/>
</svg>
