<svg width="16" height="14" viewBox="0 0 16 14" fill="none" xmlns="http://www.w3.org/2000/svg">
<path fill-rule="evenodd" clip-rule="evenodd" d="M0 3.75C0 3.4739 0.22386 3.25 0.5 3.25H6.1552C6.4313 3.25 6.6552 3.4739 6.6552 3.75C6.6552 4.0261 6.4313 4.25 6.1552 4.25H0.5C0.22386 4.25 0 4.0261 0 3.75Z" fill="#AFAFBF"/>
<path fill-rule="evenodd" clip-rule="evenodd" d="M0 10.25C0 9.9739 0.22386 9.75 0.5 9.75H6.1552C6.4313 9.75 6.6552 9.9739 6.6552 10.25C6.6552 10.5261 6.4313 10.75 6.1552 10.75H0.5C0.22386 10.75 0 10.5261 0 10.25Z" fill="#AFAFBF"/>
<path fill-rule="evenodd" clip-rule="evenodd" d="M0 7C0 6.7239 0.22386 6.5 0.5 6.5H10.6794C10.9555 6.5 11.1794 6.7239 11.1794 7C11.1794 7.2761 10.9555 7.5 10.6794 7.5H0.5C0.22386 7.5 0 7.2761 0 7Z" fill="#AFAFBF"/>
<path fill-rule="evenodd" clip-rule="evenodd" d="M0 0.5C0 0.22386 0.22386 0 0.5 0H15.2035C15.4797 0 15.7035 0.22386 15.7035 0.5C15.7035 0.77614 15.4797 1 15.2035 1H0.5C0.22386 1 0 0.77614 0 0.5Z" fill="#AFAFBF"/>
<path fill-rule="evenodd" clip-rule="evenodd" d="M0 13.5C0 13.2239 0.22386 13 0.5 13H15.2035C15.4797 13 15.7035 13.2239 15.7035 13.5C15.7035 13.7761 15.4797 14 15.2035 14H0.5C0.22386 14 0 13.7761 0 13.5Z" fill="#AFAFBF"/>
</svg>
