<svg width="7" height="12" viewBox="0 0 7 12" fill="none" xmlns="http://www.w3.org/2000/svg">
<path d="M2.74996 0.00135994L6.95516 0C6.97266 0.04179 6.97826 0.0976702 6.97216 0.16763L6.88866 0.40204C6.48136 0.36661 5.84456 0.68553 5.62266 0.69644C5.45386 0.70189 4.97596 2.215 4.58026 4.4664L4.16406 6.8922C3.87526 8.5186 3.70696 9.6066 3.65916 10.1563C3.63096 10.481 3.59896 10.7096 3.65916 10.7523C3.98096 10.981 4.52676 10.9766 5.24736 11.0392C5.26476 11.081 5.27126 11.1269 5.26696 11.1769C5.26346 11.2169 5.23476 11.305 5.18086 11.4413L2.61056 11.4018C1.50146 11.4018 0.697958 11.3781 0.0435584 11.4018C0.00865837 11.3182 -0.00524213 11.2364 0.00175787 11.1565L0.0434582 11.0392C0.638758 10.9702 1.58026 10.7105 1.76126 10.5651C1.95356 10.4107 2.10186 10.1567 2.20626 9.8033C2.52466 8.683 2.80266 7.4233 3.04006 6.0241L3.32706 4.3574C3.55236 3.0981 3.68716 2.2136 3.73156 1.7039C3.77586 1.1942 3.95706 0.55156 3.88396 0.5452C3.54196 0.48524 3.07506 0.43747 2.66776 0.40204C2.66076 0.36115 2.66076 0.30073 2.66776 0.22078C2.67466 0.14083 2.70216 0.0676899 2.74996 0.00135994Z" fill="#AFAFBF"/>
</svg>
