<svg width="14" height="17" viewBox="0 0 14 17" fill="none" xmlns="http://www.w3.org/2000/svg">
<path d="M9.33333 0.000510928C9.33333 0.265146 9.30568 1.01689 9.12368 1.37098C8.91275 1.78105 8.57395 2.02874 8.22267 2.16119C7.92038 2.27514 7.60352 2.3061 7.357 2.31983C7.105 2.33387 6.80913 2.33386 6.50428 2.33385L4.22742 2.33359C3.92758 2.32725 3.43478 2.42802 3.0436 2.73475C2.70562 2.99981 2.33333 3.50125 2.33333 4.55323V6.24548H8.16667C8.16667 6.81236 8.11813 7.74733 7.36937 8.2476C7.06277 8.45258 6.73692 8.5073 6.50638 8.53005C6.27877 8.55256 6.01673 8.55245 5.77022 8.55245H2.33333V15.5524C2.33333 16.1968 1.81102 16.7191 1.16667 16.7191C0.52234 16.7191 0 16.1968 0 15.5524V4.55323C0 2.8443 0.656192 1.64179 1.6037 0.898693C2.4927 0.201551 3.53512 -0.0119607 4.26312 0.000510928H9.33333Z" fill="#AFAFBF"/>
<path fill-rule="evenodd" clip-rule="evenodd" d="M10.5002 5.05233C11.1445 5.05233 11.6668 5.57464 11.6668 6.21899V7.38566H12.8335C13.4778 7.38566 14.0002 7.90798 14.0002 8.55233C14.0002 9.19668 13.4778 9.71899 12.8335 9.71899H11.6668V13.219C11.6668 13.4212 11.7371 13.7504 11.9136 13.9956C12.0473 14.1814 12.2804 14.3857 12.8335 14.3857C13.4778 14.3857 14.0002 14.908 14.0002 15.5523C14.0002 16.1967 13.4778 16.719 12.8335 16.719C11.5199 16.719 10.5864 16.1456 10.0201 15.359C9.49659 14.6319 9.3335 13.7946 9.3335 13.219V8.55244V6.21899C9.3335 5.57464 9.85581 5.05233 10.5002 5.05233Z" fill="#AFAFBF"/>
</svg>
