<svg width="16" height="14" viewBox="0 0 16 14" fill="none" xmlns="http://www.w3.org/2000/svg">
<path fill-rule="evenodd" clip-rule="evenodd" d="M15.7031 3.75C15.7031 3.4739 15.4793 3.25 15.2031 3.25H9.54785C9.27175 3.25 9.04785 3.4739 9.04785 3.75C9.04785 4.0261 9.27175 4.25 9.54785 4.25H15.2031C15.4793 4.25 15.7031 4.0261 15.7031 3.75Z" fill="#AFAFBF"/>
<path fill-rule="evenodd" clip-rule="evenodd" d="M15.7031 10.25C15.7031 9.9739 15.4793 9.75 15.2031 9.75H9.54785C9.27175 9.75 9.04785 9.9739 9.04785 10.25C9.04785 10.5261 9.27175 10.75 9.54785 10.75H15.2031C15.4793 10.75 15.7031 10.5261 15.7031 10.25Z" fill="#AFAFBF"/>
<path fill-rule="evenodd" clip-rule="evenodd" d="M15.7027 7C15.7027 6.7239 15.4789 6.5 15.2027 6.5H5.02344C4.74724 6.5 4.52344 6.7239 4.52344 7C4.52344 7.2761 4.74724 7.5 5.02344 7.5H15.2027C15.4789 7.5 15.7027 7.2761 15.7027 7Z" fill="#AFAFBF"/>
<path fill-rule="evenodd" clip-rule="evenodd" d="M15.7035 0.5C15.7035 0.22386 15.4797 0 15.2035 0H0.5C0.22386 0 0 0.22386 0 0.5C0 0.77614 0.22386 1 0.5 1H15.2035C15.4797 1 15.7035 0.77614 15.7035 0.5Z" fill="#AFAFBF"/>
<path fill-rule="evenodd" clip-rule="evenodd" d="M15.7035 13.5C15.7035 13.2239 15.4797 13 15.2035 13H0.5C0.22386 13 0 13.2239 0 13.5C0 13.7761 0.22386 14 0.5 14H15.2035C15.4797 14 15.7035 13.7761 15.7035 13.5Z" fill="#AFAFBF"/>
</svg>
