<svg width="13" height="14" viewBox="0 0 13 14" fill="none" xmlns="http://www.w3.org/2000/svg">
<path fill-rule="evenodd" clip-rule="evenodd" d="M4.9933 0H0V2.1978C0 2.4755 0.22386 2.7006 0.5 2.7006C0.77614 2.7006 1 2.4755 1 2.1978V1.00574H4.4933V12.4293H3.3081C3.032 12.4293 2.8081 12.6544 2.8081 12.9322C2.8081 13.2099 3.032 13.435 3.3081 13.435H6.6786C6.9547 13.435 7.1786 13.2099 7.1786 12.9322C7.1786 12.6544 6.9547 12.4293 6.6786 12.4293H5.4933V1.00574H8.9879V2.1978C8.9879 2.4755 9.2118 2.7006 9.4879 2.7006C9.764 2.7006 9.9879 2.4755 9.9879 2.1978V0H4.9933Z" fill="#AFAFBF"/>
<path fill-rule="evenodd" clip-rule="evenodd" d="M12.5 0C12.7761 0 13 0.22386 13 0.5V1.02083H12V0.5C12 0.22386 12.2239 0 12.5 0ZM12 4.1458V3.1042H13V4.1458H12ZM12 7.2708V6.2292H13V7.2708H12ZM12 10.3958V9.3542H13V10.3958H12ZM12 13V12.4792H13V13C13 13.2761 12.7761 13.5 12.5 13.5C12.2239 13.5 12 13.2761 12 13Z" fill="#AFAFBF"/>
</svg>
