<svg width="18" height="18" viewBox="0 0 18 18" fill="none" xmlns="http://www.w3.org/2000/svg">
<path d="M17 16.1V5.40001C17 4.90001 16.6 4.50001 16 4.50001V3.60001C17.1 3.60001 18 4.40001 18 5.40001V16.1C18 17.1 17.1 17.9 16 17.9H5.5C4.4 17.9 3.5 17.1 3.5 16.1H4.5C4.5 16.6 4.9 17 5.5 17H16C16.6 17 17 16.6 17 16.1Z" fill="#464646"/>
<path d="M15.4004 14.4V3.69999C15.4004 3.19999 15.0004 2.79999 14.4004 2.79999V1.89999C15.5004 1.89999 16.4004 2.69999 16.4004 3.69999V14.3C16.4004 15.3 15.5004 16.1 14.4004 16.1H3.90039C2.80039 16.1 1.90039 15.3 1.90039 14.3H2.90039C2.90039 14.8 3.30039 15.2 3.90039 15.2H14.4004C14.9004 15.3 15.4004 14.9 15.4004 14.4Z" fill="#5F5F5F"/>
<path fill-rule="evenodd" clip-rule="evenodd" d="M13.4 12.4V1.8C13.4 1.3 13 0.9 12.4 0.9H2C1.5 0.9 1 1.3 1 1.8V12.4C1 12.9 1.4 13.3 2 13.3H12.5C13 13.3 13.4 12.9 13.4 12.4ZM12.4 14.2C13.5 14.2 14.4 13.4 14.4 12.4V1.8C14.4 0.8 13.5 0 12.4 0H2C0.9 0 0 0.8 0 1.8V12.4C0 13.4 0.9 14.2 2 14.2H12.4Z" fill="#AFAFBF"/>
</svg>
