<svg width="17" height="16" viewBox="0 0 17 16" fill="none" xmlns="http://www.w3.org/2000/svg">
<path fill-rule="evenodd" clip-rule="evenodd" d="M4.80704 4.0596C4.80704 3.76071 5.04942 3.51832 5.34832 3.51832H11.4704C11.7694 3.51832 12.0117 3.76071 12.0117 4.0596C12.0117 4.3585 11.7694 4.60088 11.4704 4.60088H5.34832C5.04942 4.60088 4.80704 4.3585 4.80704 4.0596Z" fill="#AFAFBF"/>
<path fill-rule="evenodd" clip-rule="evenodd" d="M4.80704 11.0963C4.80704 10.7974 5.04942 10.555 5.34832 10.555H11.4704C11.7694 10.555 12.0117 10.7974 12.0117 11.0963C12.0117 11.3951 11.7694 11.6375 11.4704 11.6375H5.34832C5.04942 11.6375 4.80704 11.3951 4.80704 11.0963Z" fill="#AFAFBF"/>
<path fill-rule="evenodd" clip-rule="evenodd" d="M2.40299 7.57793C2.40299 7.27903 2.64532 7.03665 2.94427 7.03665H13.9641C14.263 7.03665 14.5053 7.27903 14.5053 7.57793C14.5053 7.87682 14.263 8.11921 13.9641 8.11921H2.94427C2.64532 8.11921 2.40299 7.87682 2.40299 7.57793Z" fill="#AFAFBF"/>
<path fill-rule="evenodd" clip-rule="evenodd" d="M0 0.541281C0 0.242342 0.242342 0 0.541281 0H16.4587C16.7577 0 17 0.242342 17 0.541281C17 0.840219 16.7577 1.08256 16.4587 1.08256H0.541281C0.242342 1.08256 0 0.840219 0 0.541281Z" fill="#AFAFBF"/>
<path fill-rule="evenodd" clip-rule="evenodd" d="M0 14.6146C0 14.3157 0.242342 14.0733 0.541281 14.0733H16.4587C16.7577 14.0733 17 14.3157 17 14.6146C17 14.9135 16.7577 15.1559 16.4587 15.1559H0.541281C0.242342 15.1559 0 14.9135 0 14.6146Z" fill="#AFAFBF"/>
</svg>
