<svg width="16" height="14" viewBox="0 0 16 14" fill="none" xmlns="http://www.w3.org/2000/svg">
<path fill-rule="evenodd" clip-rule="evenodd" d="M15.7036 3.75C15.7036 3.4739 15.4797 3.25 15.2036 3.25H0.5C0.22386 3.25 0 3.4739 0 3.75C0 4.0261 0.22386 4.25 0.5 4.25H15.2036C15.4797 4.25 15.7036 4.0261 15.7036 3.75Z" fill="#AFAFBF"/>
<path fill-rule="evenodd" clip-rule="evenodd" d="M15.7036 10.25C15.7036 9.9739 15.4797 9.75 15.2036 9.75H0.5C0.22386 9.75 0 9.9739 0 10.25C0 10.5261 0.22386 10.75 0.5 10.75H15.2036C15.4797 10.75 15.7036 10.5261 15.7036 10.25Z" fill="#AFAFBF"/>
<path fill-rule="evenodd" clip-rule="evenodd" d="M15.7036 7C15.7036 6.7239 15.4797 6.5 15.2036 6.5H0.5C0.22386 6.5 0 6.7239 0 7C0 7.2761 0.22386 7.5 0.5 7.5H15.2036C15.4797 7.5 15.7036 7.2761 15.7036 7Z" fill="#AFAFBF"/>
<path fill-rule="evenodd" clip-rule="evenodd" d="M15.7035 0.5C15.7035 0.22386 15.4796 0 15.2035 0H0.5C0.22386 0 0 0.22386 0 0.5C0 0.77614 0.22386 1 0.5 1H15.2035C15.4796 1 15.7035 0.77614 15.7035 0.5Z" fill="#AFAFBF"/>
<path fill-rule="evenodd" clip-rule="evenodd" d="M15.7035 13.5C15.7035 13.2239 15.4796 13 15.2035 13H0.5C0.22386 13 0 13.2239 0 13.5C0 13.7761 0.22386 14 0.5 14H15.2035C15.4796 14 15.7035 13.7761 15.7035 13.5Z" fill="#AFAFBF"/>
</svg>
