<svg width="18" height="18" viewBox="0 0 18 18" fill="none" xmlns="http://www.w3.org/2000/svg">
<path fill-rule="evenodd" clip-rule="evenodd" d="M14.8 1.10001H3.2C2 1.10001 1.1 2.00001 1.1 3.20001V14.8C1.1 16 2 16.9 3.2 16.9H14.8C16 16.9 16.9 16 16.9 14.8V3.20001C16.9 2.00001 16 1.10001 14.8 1.10001ZM3.2 7.62939e-06C1.4 7.62939e-06 0 1.40001 0 3.20001V14.8C0 16.6 1.4 18 3.2 18H14.8C16.6 18 18 16.6 18 14.8V3.20001C18 1.40001 16.6 7.62939e-06 14.8 7.62939e-06H3.2Z" fill="#595959"/>
<path d="M11.5001 15.9C9.5001 15.9 8.0001 14.9 7.2001 13C5.9001 12.8 4.9001 12.3 4.2001 11.4C3.5001 10.5 3.1001 9.5 3.1001 8.2C3.1001 7.2 3.3001 6.4 3.8001 5.6C4.2001 4.8 4.9001 4.2 5.7001 3.8C6.5001 3.4 7.4001 3.2 8.5001 3.2C9.6001 3.2 10.5001 3.4 11.3001 3.8C12.1001 4.2 12.7001 4.8 13.2001 5.6C13.6001 6.4 13.9001 7.2 13.9001 8.2C13.9001 9.5 13.5001 10.6 12.8001 11.4C12.1001 12.3 11.1001 12.8 9.8001 13C9.9001 13.4 10.2001 13.7 10.5001 13.9C10.9001 14.1 11.3001 14.2 11.8001 14.2C12.3001 14.2 12.8001 14.1 13.3001 13.9V15.6C12.7001 15.8 12.1001 15.9 11.5001 15.9ZM8.5001 11.2C9.3001 11.2 9.9001 10.9 10.3001 10.4C10.7001 9.8 11.0001 9.1 11.0001 8.2C11.0001 7.3 10.8001 6.6 10.3001 6C9.9001 5.4 9.3001 5.2 8.5001 5.2C7.7001 5.2 7.1001 5.5 6.7001 6C6.3001 6.5 6.0001 7.20001 6.0001 8.10001C6.0001 9.00001 6.3001 9.70001 6.7001 10.3C7.1001 10.9 7.7001 11.2 8.5001 11.2Z" fill="#595959"/>
</svg>
