<svg width="17" height="16" viewBox="0 0 17 16" fill="none" xmlns="http://www.w3.org/2000/svg">
<path fill-rule="evenodd" clip-rule="evenodd" d="M4.80713 4.05961C4.80713 3.76071 5.04951 3.51833 5.34841 3.51833H11.4705C11.7695 3.51833 12.0118 3.76071 12.0118 4.05961C12.0118 4.3585 11.7695 4.60089 11.4705 4.60089H5.34841C5.04951 4.60089 4.80713 4.3585 4.80713 4.05961Z" fill="#AFAFBF"/>
<path fill-rule="evenodd" clip-rule="evenodd" d="M4.80713 11.0963C4.80713 10.7974 5.04951 10.555 5.34841 10.555H11.4705C11.7695 10.555 12.0118 10.7974 12.0118 11.0963C12.0118 11.3951 11.7695 11.6375 11.4705 11.6375H5.34841C5.04951 11.6375 4.80713 11.3951 4.80713 11.0963Z" fill="#AFAFBF"/>
<path fill-rule="evenodd" clip-rule="evenodd" d="M2.40283 7.57792C2.40283 7.27903 2.64516 7.03664 2.94411 7.03664H13.9639C14.2628 7.03664 14.5052 7.27903 14.5052 7.57792C14.5052 7.87682 14.2628 8.11921 13.9639 8.11921H2.94411C2.64516 8.11921 2.40283 7.87682 2.40283 7.57792Z" fill="#AFAFBF"/>
<path fill-rule="evenodd" clip-rule="evenodd" d="M0 0.541281C0 0.242342 0.242342 0 0.541281 0H16.4587C16.7577 0 17 0.242342 17 0.541281C17 0.840219 16.7577 1.08256 16.4587 1.08256H0.541281C0.242342 1.08256 0 0.840219 0 0.541281Z" fill="#AFAFBF"/>
<path fill-rule="evenodd" clip-rule="evenodd" d="M0 14.6146C0 14.3157 0.242342 14.0733 0.541281 14.0733H16.4587C16.7577 14.0733 17 14.3157 17 14.6146C17 14.9135 16.7577 15.1559 16.4587 15.1559H0.541281C0.242342 15.1559 0 14.9135 0 14.6146Z" fill="#AFAFBF"/>
</svg>
