<svg width="18" height="16" viewBox="0 0 18 16" fill="none" xmlns="http://www.w3.org/2000/svg">
<path fill-rule="evenodd" clip-rule="evenodd" d="M17.8125 0.5C17.8125 0.2239 17.5886 -1.21879e-07 17.3125 -1.25172e-07L0.6875 -3.23423e-07C0.4114 -3.26715e-07 0.1875 0.2239 0.1875 0.5C0.1875 0.7761 0.4114 1 0.6875 1L17.3125 1C17.5886 1 17.8125 0.7761 17.8125 0.5Z" fill="#AFAFBF"/>
<path fill-rule="evenodd" clip-rule="evenodd" d="M12.375 4.25L12.375 9C12.375 9.5523 11.9273 10 11.375 10L11 10C10.4477 10 10 9.5523 10 9L10 4.25C10 3.6977 10.4477 3.25 11 3.25L11.375 3.25C11.9273 3.25 12.375 3.6977 12.375 4.25ZM13.375 9C13.375 10.1046 12.4796 11 11.375 11L11 11C9.8954 11 9 10.1046 9 9L9 4.25C9 3.1454 9.8954 2.25 11 2.25L11.375 2.25C12.4796 2.25 13.375 3.1454 13.375 4.25L13.375 9Z" fill="#AFAFBF"/>
<path fill-rule="evenodd" clip-rule="evenodd" d="M6.25 4L6.25 14C6.25 14.5523 5.8023 15 5.25 15L4.875 15C4.3227 15 3.875 14.5523 3.875 14L3.875 4C3.875 3.4477 4.3227 3 4.875 3L5.25 3C5.8023 3 6.25 3.4477 6.25 4ZM7.25 14C7.25 15.1046 6.3546 16 5.25 16L4.875 16C3.7704 16 2.875 15.1046 2.875 14L2.875 4C2.875 2.8954 3.7704 2 4.875 2L5.25 2C6.3546 2 7.25 2.8954 7.25 4L7.25 14Z" fill="#AFAFBF"/>
</svg>
