<svg width="9" height="13" viewBox="0 0 9 13" fill="none" xmlns="http://www.w3.org/2000/svg">
<path d="M9 0V6.7243C8.9943 7.9326 8.6243 8.9208 7.8899 9.6891C7.1613 10.4575 6.1708 10.8886 4.9184 10.9824L4.4829 11C3.1224 11 2.038 10.6217 1.2296 9.8651C0.4213 9.1085 0.0114 8.0674 0 6.7419V0H1.6224V6.6891C1.6224 7.6158 1.87 8.3372 2.3653 8.8534C2.8605 9.3636 3.5664 9.6188 4.4829 9.6188C5.4108 9.6188 6.1195 9.3636 6.6091 8.8534C7.1044 8.3431 7.352 7.6246 7.352 6.6979V0H9Z" fill="#AFAFBF"/>
<path d="M0 12H9V13H0V12Z" fill="#AFAFBF"/>
</svg>
