<svg width="11" height="15" viewBox="0 0 11 15" fill="none" xmlns="http://www.w3.org/2000/svg">
<path d="M0 0H11V1H0V0Z" fill="#AFAFBF"/>
<path d="M0 14H11V15H0V14Z" fill="#AFAFBF"/>
<path d="M10.7376 12.8264H8.835C8.2081 12.8264 7.8946 12.5227 7.8946 11.9152V10.8087H7.8509C6.7866 12.2696 5.3651 13 3.5865 13C2.5368 13 1.6766 12.7324 1.006 12.1972C0.3353 11.6476 0 10.9099 0 9.9842C0 8.7982 0.5176 7.9303 1.5527 7.3807C2.6024 6.8166 4.0384 6.5345 5.8608 6.5345H7.6978V6.2742C7.6978 4.4661 6.7502 3.5621 4.8549 3.5621C3.9655 3.5621 3.3241 3.6489 2.9304 3.8225C2.5368 3.9816 2.2525 4.1118 2.0775 4.213C1.9172 4.3143 1.7932 4.3938 1.7058 4.4517C1.4871 4.6252 1.3267 4.6397 1.2247 4.4951L0.6123 3.7357C0.5103 3.62 0.5249 3.5043 0.6561 3.3886C0.9039 3.0703 1.4142 2.75937 2.1869 2.45562C2.9596 2.15187 3.8708 2 4.9205 2C7.9821 2 9.5129 3.4464 9.5129 6.3393V11.3728H10.7376C10.9125 11.3728 11 11.4596 11 11.6331V12.5661C11 12.7396 10.9125 12.8264 10.7376 12.8264ZM7.6978 7.8363H5.9702C5.1246 7.8363 4.4248 7.8797 3.8708 7.9665C3.3168 8.0533 2.8429 8.2413 2.4493 8.5306C2.0702 8.8199 1.8807 9.2176 1.8807 9.7239C1.8807 10.2301 2.0848 10.6496 2.493 10.9822C2.9158 11.3005 3.4626 11.4596 4.1332 11.4596C5.5474 11.4596 6.7356 10.8376 7.6978 9.5937V7.8363Z" fill="#AFAFBF"/>
</svg>
