<svg width="17" height="9" viewBox="0 0 17 9" fill="none" xmlns="http://www.w3.org/2000/svg">
<path d="M16.3125 9C16.623 9 16.875 8.784 16.875 8.51782V0.482175C16.875 0.216 16.623 0 16.3125 0C16.002 0 15.75 0.216 15.75 0.482175V8.51782C15.75 8.784 16.002 9 16.3125 9Z" fill="#AFAFBF"/>
<path d="M0.632812 6.75H6.11719C6.4665 6.75 6.75 6.4665 6.75 6.11719C6.75 5.76788 6.4665 5.48438 6.11719 5.48438H1.26561V0.632812C1.26561 0.2835 0.982114 0 0.632812 0C0.2835 0 0 0.2835 0 0.632812V6.11719C0 6.4665 0.2835 6.75 0.632812 6.75Z" fill="#AFAFBF"/>
<path d="M0.609468 6.74944C0.862964 6.74944 1.09862 6.57394 1.1855 6.29505C2.10684 3.33686 4.56874 1.34989 7.3125 1.34989C10.0563 1.34989 12.5181 3.33686 13.4395 6.29505C13.5492 6.64785 13.8953 6.83482 14.2146 6.71254C14.5322 6.59092 14.7013 6.20662 14.5916 5.85405C13.5005 2.35237 10.5754 0 7.3125 0C4.04955 0 1.1245 2.35237 0.0334228 5.85405C-0.0762197 6.20662 0.092778 6.59014 0.41041 6.71254C0.476167 6.73774 0.543712 6.74944 0.609468 6.74944Z" fill="#AFAFBF"/>
</svg>
