<svg width="14" height="14" viewBox="0 0 14 14" fill="none" xmlns="http://www.w3.org/2000/svg">
<path fill-rule="evenodd" clip-rule="evenodd" d="M5 8H2C1.44772 8 1 8.4477 1 9V12C1 12.5523 1.44772 13 2 13H5C5.5523 13 6 12.5523 6 12V9C6 8.4477 5.5523 8 5 8ZM2 7C0.89543 7 0 7.8954 0 9V12C0 13.1046 0.89543 14 2 14H5C6.1046 14 7 13.1046 7 12V9C7 7.8954 6.1046 7 5 7H2Z" fill="#AFAFBF"/>
<path fill-rule="evenodd" clip-rule="evenodd" d="M12 1H9C8.4477 1 8 1.44772 8 2V5C8 5.5523 8.4477 6 9 6H12C12.5523 6 13 5.5523 13 5V2C13 1.44772 12.5523 1 12 1ZM9 0C7.8954 0 7 0.89543 7 2V5C7 6.1046 7.8954 7 9 7H12C13.1046 7 14 6.1046 14 5V2C14 0.89543 13.1046 0 12 0H9Z" fill="#AFAFBF"/>
</svg>
