<svg width="19" height="17" viewBox="0 0 19 17" fill="none" xmlns="http://www.w3.org/2000/svg">
<path d="M9.51785 6.1377L5.50732 10.1482L6.55488 11.1958L8.77711 8.97356V16.3334H10.2586V8.97356L12.4808 11.1958L13.5284 10.1482L9.51785 6.1377Z" fill="#AFAFBF"/>
<path d="M15.4422 5.83537C15.3546 2.60285 12.6978 0 9.44445 0C7.9499 0 6.51793 0.55293 5.41225 1.55685C4.45954 2.42187 3.81577 3.55916 3.56369 4.80503C2.66304 4.99871 1.84096 5.46458 1.2049 6.15025C0.427908 6.98803 0 8.07901 0 9.2222C0 11.7137 2.02699 13.7407 4.51851 13.7407C4.52441 13.7407 4.53024 13.7406 4.53451 13.7406H5.29629V12.2591H4.52838L4.51428 12.2592C2.84161 12.2569 1.48148 10.8954 1.48148 9.2222C1.48148 7.65006 2.70724 6.32039 4.27207 6.19515L4.8869 6.14594L4.94987 5.53241C5.18681 3.22299 7.1191 1.48144 9.44445 1.48144C11.936 1.48144 13.963 3.50843 13.963 5.99996V7.29626H15.037C16.4053 7.29626 17.5185 8.40943 17.5185 9.77773C17.5185 11.146 16.4053 12.2592 15.037 12.2592L13.7407 12.2589V13.7405H15.0129C15.0209 13.7406 15.029 13.7407 15.037 13.7407C17.2222 13.7407 19 11.9629 19 9.77776C19 7.72929 17.4379 6.03888 15.4422 5.83537Z" fill="#AFAFBF"/>
</svg>
