<svg width="19" height="18" viewBox="0 0 19 18" fill="none" xmlns="http://www.w3.org/2000/svg">
<path fill-rule="evenodd" clip-rule="evenodd" d="M15.0503 1.50001H3.05029C2.22187 1.50001 1.55029 2.17158 1.55029 3.00001V15C1.55029 15.8284 2.22187 16.5 3.05029 16.5H15.0503C15.8787 16.5 16.5503 15.8284 16.5503 15V3.00001C16.5503 2.17158 15.8787 1.50001 15.0503 1.50001ZM3.05029 7.62939e-06C1.39344 7.62939e-06 0.050293 1.34315 0.050293 3.00001V15C0.050293 16.6569 1.39344 18 3.05029 18H15.0503C16.7071 18 18.0503 16.6569 18.0503 15V3.00001C18.0503 1.34315 16.7071 7.62939e-06 15.0503 7.62939e-06H3.05029Z" fill="#595959"/>
<path fill-rule="evenodd" clip-rule="evenodd" d="M8.51996 4.46968C8.81286 4.17678 9.28773 4.17678 9.58062 4.46968L14.5806 9.46968C14.8735 9.76257 14.8735 10.2374 14.5806 10.5303C14.2877 10.8232 13.8129 10.8232 13.52 10.5303L9.05029 6.06067L4.58062 10.5303C4.28773 10.8232 3.81286 10.8232 3.51996 10.5303C3.22707 10.2374 3.22707 9.76257 3.51996 9.46968L8.51996 4.46968Z" fill="#595959"/>
<path fill-rule="evenodd" clip-rule="evenodd" d="M9.05029 13.5C8.63608 13.5 8.30029 13.1642 8.30029 12.75L8.30029 8.75001C8.30029 8.33579 8.63608 8.00001 9.05029 8.00001C9.46451 8.00001 9.80029 8.33579 9.80029 8.75001L9.80029 12.75C9.80029 13.1642 9.46451 13.5 9.05029 13.5Z" fill="#595959"/>
</svg>
