<svg width="17" height="14" viewBox="0 0 17 14" fill="none" xmlns="http://www.w3.org/2000/svg">
<path d="M12.9467 5.91026C12.8847 5.84986 12.7986 5.81506 12.7108 5.81506C12.623 5.81506 12.5369 5.84986 12.4748 5.91026C12.4127 5.97066 12.377 6.05446 12.377 6.13986C12.377 6.22526 12.4127 6.30906 12.4748 6.36946C12.5369 6.42996 12.623 6.46466 12.7108 6.46466C12.7986 6.46466 12.8847 6.42996 12.9467 6.36946C13.0088 6.30906 13.0445 6.22526 13.0445 6.13986C13.0445 6.05446 13.0088 5.97066 12.9467 5.91026Z" fill="#AFAFBF"/>
<path fill-rule="evenodd" clip-rule="evenodd" d="M15.7293 13.3503H16.0825C16.2669 13.3503 16.4163 13.4957 16.4162 13.6751C16.4162 13.8545 16.2668 13.9999 16.0825 13.9999H15.4805L15.4791 14L15.4767 13.9999H14.8761C14.6918 13.9999 14.5424 13.8545 14.5424 13.6751C14.5424 13.4958 14.6918 13.3503 14.8761 13.3503H15.0337L14.0709 10.1524H8.8486L8.5 9L11.1394 0.23348C11.1811 0.0950904 11.3116 0 11.4598 0C11.6079 0 11.7384 0.0950904 11.7801 0.23348L13.1685 4.8452C13.2204 5.0174 13.119 5.1978 12.9421 5.2482C12.7651 5.2987 12.5798 5.2 12.5279 5.0279L11.4597 1.47998L9.0442 9.5028H13.8753L13.2772 7.5163C13.2253 7.3442 13.3267 7.1637 13.5036 7.1133C13.6806 7.063 13.866 7.1615 13.9178 7.3337L15.7293 13.3503Z" fill="#AFAFBF"/>
<path d="M9.5681 13.3503H9.2149L7.4034 7.3337C7.3516 7.1615 7.1662 7.063 6.9893 7.1133C6.8124 7.1637 6.711 7.3442 6.7628 7.5163L7.3609 9.5028H2.5298L4.9454 1.47998L6.0136 5.0279C6.0654 5.2 6.2508 5.2987 6.4277 5.2482C6.6046 5.1978 6.706 5.0174 6.6542 4.8452L5.2657 0.23348C5.224 0.0950904 5.0936 0 4.9454 0C4.7972 0 4.6667 0.0950904 4.6251 0.23348L1.76571 9.7304L1.76515 9.7322L0.67582 13.3502H0.32267C0.16748 13.3502 0.03736 13.4535 0 13.5931C0 13.5931 3.50061e-07 13.6275 0.00096035 13.6751C0.00192035 13.7227 2.95639e-05 13.757 2.95639e-05 13.757C0.0373896 13.8966 0.16745 13.9999 0.3227 13.9999H0.92464L0.92601 14L0.9284 13.9999H1.52904C1.71339 13.9999 1.8628 13.8545 1.8628 13.6751C1.8628 13.4958 1.71339 13.3503 1.52904 13.3503H1.37143L2.3343 10.1524H7.5565L8.5193 13.3503H8.3618C8.1774 13.3503 8.028 13.4958 8.028 13.6751C8.028 13.8545 8.1774 13.9999 8.3618 13.9999H8.9624L8.9648 14L8.9661 13.9999H9.5681C9.7524 13.9999 9.9019 13.8545 9.9019 13.6751C9.9019 13.4957 9.7525 13.3503 9.5681 13.3503Z" fill="#AFAFBF"/>
<path d="M6.93211 5.91026C6.87001 5.84986 6.78391 5.81506 6.69611 5.81506C6.6083 5.81506 6.5222 5.84986 6.4601 5.91026C6.39801 5.97066 6.3623 6.05446 6.3623 6.13986C6.3623 6.22526 6.39801 6.30906 6.4601 6.36946C6.5222 6.42996 6.6083 6.46466 6.69611 6.46466C6.78391 6.46466 6.87001 6.42996 6.93211 6.36946C6.9941 6.30906 7.02981 6.22526 7.02981 6.13986C7.02981 6.05446 6.9941 5.97066 6.93211 5.91026Z" fill="#AFAFBF"/>
</svg>
