<svg width="17" height="17" viewBox="0 0 17 17" fill="none" xmlns="http://www.w3.org/2000/svg">
<path d="M7.48646 0C3.35854 0 0 3.35854 0 7.48646C0 11.6146 3.35854 14.9729 7.48646 14.9729C11.6146 14.9729 14.9729 11.6146 14.9729 7.48646C14.9729 3.35854 11.6146 0 7.48646 0ZM7.48646 13.5908C4.12055 13.5908 1.38212 10.8524 1.38212 7.48649C1.38212 4.12058 4.12055 1.38212 7.48646 1.38212C10.8524 1.38212 13.5908 4.12055 13.5908 7.48646C13.5908 10.8524 10.8524 13.5908 7.48646 13.5908Z" fill="#AFAFBF"/>
<path d="M16.7975 15.8204L12.8354 11.8583C12.5654 11.5884 12.1282 11.5884 11.8582 11.8583C11.5883 12.1281 11.5883 12.5658 11.8582 12.8355L15.8203 16.7976C15.9553 16.9325 16.132 17 16.3089 17C16.4856 17 16.6625 16.9325 16.7975 16.7976C17.0675 16.5278 17.0675 16.0901 16.7975 15.8204Z" fill="#AFAFBF"/>
<path d="M4.97733 8.46989L10.5805 8.46988C10.9623 8.46988 11.2715 8.16072 11.2715 7.77892C11.2717 7.39728 10.9622 7.08779 10.5805 7.08796L4.97733 7.08796C4.78645 7.08796 4.61377 7.16518 4.48867 7.29027C4.36375 7.4152 4.28638 7.58802 4.28636 7.77892C4.2862 8.16056 4.59569 8.47005 4.97733 8.46989Z" fill="#AFAFBF"/>
</svg>
